<svg width="650" height="650" version="1.1" viewBox="0 0 650 650" xmlns="http://www.w3.org/2000/svg" xmlns:xlink="http://www.w3.org/1999/xlink">
 <defs>
  <linearGradient id="linearGradient17889">
   <stop stop-color="#878787" offset="0"/>
   <stop stop-color="#878787" stop-opacity="0" offset="1"/>
  </linearGradient>
  <filter id="filter4760" color-interpolation-filters="sRGB">
   <feTurbulence baseFrequency="1" numOctaves="3" result="result0" type="fractalNoise"/>
   <feColorMatrix result="result4" type="saturate" values="0"/>
   <feComposite in="SourceGraphic" in2="result4" k1="1.25" k2="0.5" k3="0.5" operator="arithmetic" result="result2"/>
   <feBlend in="result2" in2="SourceGraphic" result="result5"/>
   <feComposite in="result5" in2="SourceGraphic" operator="in" result="result3"/>
  </filter>
  <filter id="filter6326" x="-.014923" y="-.1103" width="1.0298" height="1.2206" color-interpolation-filters="sRGB">
   <feGaussianBlur stdDeviation="1.9328608"/>
  </filter>
  <filter id="filter6330" x="-.01602" y="-.10937" width="1.032" height="1.2187" color-interpolation-filters="sRGB">
   <feGaussianBlur stdDeviation="1.9328608"/>
  </filter>
  <filter id="filter6334" x="-.017514" y="-.1208" width="1.035" height="1.2416" color-interpolation-filters="sRGB">
   <feGaussianBlur stdDeviation="1.9328608"/>
  </filter>
  <filter id="filter6338" x="-.036872" y="-.26062" width="1.0737" height="1.5212" color-interpolation-filters="sRGB">
   <feGaussianBlur stdDeviation="4.1580807"/>
  </filter>
  <filter id="filter6342" x="-.017618" y="-.13757" width="1.0352" height="1.2751" color-interpolation-filters="sRGB">
   <feGaussianBlur stdDeviation="1.9328608"/>
  </filter>
  <filter id="filter6350" x="-.12755" y="-.11633" width="1.2551" height="1.2327" color-interpolation-filters="sRGB">
   <feGaussianBlur stdDeviation="1.9328608"/>
  </filter>
  <filter id="filter6354" x="-.11539" y="-.083674" width="1.2308" height="1.1673" color-interpolation-filters="sRGB">
   <feGaussianBlur stdDeviation="1.9328608"/>
  </filter>
  <filter id="filter6358" x="-.10807" y="-.073376" width="1.2161" height="1.1468" color-interpolation-filters="sRGB">
   <feGaussianBlur stdDeviation="1.9328608"/>
  </filter>
  <filter id="filter6362" x="-.095518" y="-.064279" width="1.191" height="1.1286" color-interpolation-filters="sRGB">
   <feGaussianBlur stdDeviation="1.9328608"/>
  </filter>
  <filter id="filter6366" x="-.075856" y="-.049579" width="1.1517" height="1.0992" color-interpolation-filters="sRGB">
   <feGaussianBlur stdDeviation="1.9328608"/>
  </filter>
  <filter id="filter8643" x="-.069923" y="-.18517" width="1.1398" height="1.3703" color-interpolation-filters="sRGB">
   <feGaussianBlur stdDeviation="0.89711205"/>
  </filter>
  <filter id="filter8843" x="-.22627" y="-.13931" width="1.4525" height="1.2786" color-interpolation-filters="sRGB">
   <feGaussianBlur stdDeviation="1.6504983"/>
  </filter>
  <filter id="filter9263" x="-.46033" y="-.28342" width="1.9207" height="1.5668" color-interpolation-filters="sRGB">
   <feGaussianBlur stdDeviation="3.357866"/>
  </filter>
  <filter id="filter9267" x="-.53988" y="-.33239" width="2.0798" height="1.6648" color-interpolation-filters="sRGB">
   <feGaussianBlur stdDeviation="3.9381027"/>
  </filter>
  <filter id="filter9774" x="-.16577" y="-.37611" width="1.3315" height="1.7522" color-interpolation-filters="sRGB">
   <feGaussianBlur stdDeviation="3.9782215"/>
  </filter>
  <filter id="filter9974" x="-.085804" y="-.55315" width="1.1716" height="2.1063" color-interpolation-filters="sRGB">
   <feGaussianBlur stdDeviation="1.4492568"/>
  </filter>
  <filter id="filter10242" x="-.13122" y="-.69922" width="1.2624" height="2.3984" color-interpolation-filters="sRGB">
   <feGaussianBlur stdDeviation="2.51053"/>
  </filter>
  <filter id="filter10246" x="-.42959" y="-.33845" width="1.8592" height="1.6769" color-interpolation-filters="sRGB">
   <feGaussianBlur stdDeviation="2.51053"/>
  </filter>
  <filter id="filter10250" x="-.42959" y="-.33845" width="1.8592" height="1.6769" color-interpolation-filters="sRGB">
   <feGaussianBlur stdDeviation="2.51053"/>
  </filter>
  <filter id="filter10486" x="-.31359" y="-.055441" width="1.6272" height="1.1109" color-interpolation-filters="sRGB">
   <feGaussianBlur stdDeviation="4.9569003"/>
  </filter>
  <filter id="filter10490" x="-.35996" y="-.052254" width="1.7199" height="1.1045" color-interpolation-filters="sRGB">
   <feGaussianBlur stdDeviation="4.9569003"/>
  </filter>
  <filter id="filter13432" x="-.0076001" y="-.028139" width="1.0152" height="1.0563" color-interpolation-filters="sRGB">
   <feGaussianBlur stdDeviation="0.81928726"/>
  </filter>
  <filter id="filter13440" x="-.008027" y="-.036318" width="1.0161" height="1.0726" color-interpolation-filters="sRGB">
   <feGaussianBlur stdDeviation="0.81928726"/>
  </filter>
  <filter id="filter4136" x="-.35917" y="-.15166" width="1.7183" height="1.3033" color-interpolation-filters="sRGB">
   <feGaussianBlur stdDeviation="0.96554149"/>
  </filter>
  <filter id="filter4324" x="-.64056" y="-.1307" width="2.2811" height="1.2614" color-interpolation-filters="sRGB">
   <feGaussianBlur stdDeviation="2.7360919"/>
  </filter>
  <filter id="filter4997" x="-.047181" y="-.4652" width="1.0944" height="1.9304" color-interpolation-filters="sRGB">
   <feGaussianBlur stdDeviation="4.5452012"/>
  </filter>
  <filter id="filter5001" x="-.049244" y="-.45687" width="1.0985" height="1.9137" color-interpolation-filters="sRGB">
   <feGaussianBlur stdDeviation="4.5452012"/>
  </filter>
  <filter id="filter5005" x="-.049023" y="-.60916" width="1.098" height="2.2183" color-interpolation-filters="sRGB">
   <feGaussianBlur stdDeviation="4.5452012"/>
  </filter>
  <filter id="filter5133" x="-.6544" y="-.12606" width="2.3088" height="1.2521" color-interpolation-filters="sRGB">
   <feGaussianBlur stdDeviation="2.6032052"/>
  </filter>
  <filter id="filter5177" x="-.39203" y="-.067531" width="1.7841" height="1.1351" color-interpolation-filters="sRGB">
   <feGaussianBlur stdDeviation="1.6329305"/>
  </filter>
  <filter id="filter5265" x="-.029946" y="-.33653" width="1.0599" height="1.6731" color-interpolation-filters="sRGB">
   <feGaussianBlur stdDeviation="2.3482079"/>
  </filter>
  <filter id="filter5317" x="-.65593" y="-.15201" width="2.3119" height="1.304" color-interpolation-filters="sRGB">
   <feGaussianBlur stdDeviation="3.3395692"/>
  </filter>
  <filter id="filter5327-5" x="-1.2407e-5" y="-4.2436e-5" width="1" height="1.0001" color-interpolation-filters="sRGB">
   <feGaussianBlur stdDeviation="0.00072972996"/>
  </filter>
  <filter id="filter5838" x="-.073866" y="-.077984" width="1.1477" height="1.156" color-interpolation-filters="sRGB">
   <feGaussianBlur stdDeviation="3.351465"/>
  </filter>
  <filter id="filter6154" x="-.26024" y="-.57371" width="1.5205" height="2.1474" color-interpolation-filters="sRGB">
   <feGaussianBlur stdDeviation="8.5417293"/>
  </filter>
  <filter id="filter6230" x="-.25822" y="-.28934" width="1.5164" height="1.5787" color-interpolation-filters="sRGB">
   <feGaussianBlur stdDeviation="4.5596083"/>
  </filter>
  <filter id="filter5327-5-7" x="-9.6175e-6" y="-1.0466e-5" width="1" height="1" color-interpolation-filters="sRGB">
   <feGaussianBlur result="fbSourceGraphic" stdDeviation="0.00060847743"/>
   <feColorMatrix in="fbSourceGraphic" result="fbSourceGraphicAlpha" values="0 0 0 -1 0 0 0 0 -1 0 0 0 0 -1 0 0 0 0 1 0"/>
   <feTurbulence baseFrequency="1" in="fbSourceGraphic" numOctaves="3" result="result0" type="fractalNoise"/>
   <feColorMatrix result="result4" type="saturate" values="0"/>
   <feComposite in="fbSourceGraphic" in2="result4" k1="1.25" k2="0.5" k3="0.5" operator="arithmetic" result="result2"/>
   <feBlend in="result2" in2="fbSourceGraphic" result="result5"/>
   <feComposite in="result5" in2="fbSourceGraphic" operator="in" result="result3"/>
  </filter>
  <filter id="filter5327-5-6" x="-1.2407e-5" y="-4.2436e-5" width="1" height="1.0001" color-interpolation-filters="sRGB">
   <feGaussianBlur stdDeviation="0.00072972996"/>
  </filter>
  <filter id="filter11823" x="-.16263" y="-.060856" width="1.3253" height="1.1217" color-interpolation-filters="sRGB">
   <feGaussianBlur stdDeviation="1.3387262"/>
  </filter>
  <filter id="filter11991" x="-.005429" y="-.018849" width="1.0109" height="1.0377" color-interpolation-filters="sRGB">
   <feGaussianBlur stdDeviation="0.32139838"/>
  </filter>
  <filter id="filter12067" x="-.0094542" y="-.030862" width="1.0189" height="1.0617" color-interpolation-filters="sRGB">
   <feGaussianBlur stdDeviation="0.54617201"/>
  </filter>
  <filter id="filter12321" x="-.092681" y="-.21914" width="1.1854" height="1.4383" color-interpolation-filters="sRGB">
   <feGaussianBlur stdDeviation="1.9664523"/>
  </filter>
  <filter id="filter12505" x="-.35785" y="-.18867" width="1.7157" height="1.3773" color-interpolation-filters="sRGB">
   <feGaussianBlur stdDeviation="1.7229654"/>
  </filter>
  <filter id="filter15726" x="-.91563" y="-.2698" width="2.8313" height="1.5396" color-interpolation-filters="sRGB">
   <feGaussianBlur stdDeviation="2.0135597"/>
  </filter>
  <filter id="filter17314" x="-.052635" y="-.23892" width="1.1053" height="1.4778" color-interpolation-filters="sRGB">
   <feGaussianBlur stdDeviation="2.4326035"/>
  </filter>
  <filter id="filter17318" x="-.13726" y="-.09005" width="1.2745" height="1.1801" color-interpolation-filters="sRGB">
   <feGaussianBlur stdDeviation="2.4326035"/>
  </filter>
  <filter id="filter17322" x="-.1136" y="-.084588" width="1.2272" height="1.1692" color-interpolation-filters="sRGB">
   <feGaussianBlur stdDeviation="2.4326035"/>
  </filter>
  <filter id="filter17326" x="-.060329" y="-.073834" width="1.1207" height="1.1477" color-interpolation-filters="sRGB">
   <feGaussianBlur stdDeviation="2.4326035"/>
  </filter>
  <filter id="filter17330" x="-.1873" y="-.33084" width="1.3746" height="1.6617" color-interpolation-filters="sRGB">
   <feGaussianBlur stdDeviation="2.4326035"/>
  </filter>
  <filter id="filter17406" x="-.050923" y="-.071352" width="1.1018" height="1.1427" color-interpolation-filters="sRGB">
   <feGaussianBlur stdDeviation="2.9470469"/>
  </filter>
  <filter id="filter17474" x="-.1063" y="-.28019" width="1.2126" height="1.5604" color-interpolation-filters="sRGB">
   <feGaussianBlur stdDeviation="3.1949177"/>
  </filter>
  <filter id="filter17510" x="-1.0561" y="-.3112" width="3.1123" height="1.6224" color-interpolation-filters="sRGB">
   <feGaussianBlur stdDeviation="2.3225446"/>
  </filter>
  <filter id="filter17574" x="-.0094542" y="-.030862" width="1.0189" height="1.0617" color-interpolation-filters="sRGB">
   <feGaussianBlur stdDeviation="0.54617201"/>
  </filter>
  <filter id="filter17606" x="-.0058099" y="-.020171" width="1.0116" height="1.0403" color-interpolation-filters="sRGB">
   <feGaussianBlur stdDeviation="0.34394595"/>
  </filter>
  <filter id="filter5327-5-7-0" x="-9.6175e-6" y="-1.0466e-5" width="1" height="1" color-interpolation-filters="sRGB">
   <feGaussianBlur result="fbSourceGraphic" stdDeviation="0.00060847743"/>
   <feColorMatrix in="fbSourceGraphic" result="fbSourceGraphicAlpha" values="0 0 0 -1 0 0 0 0 -1 0 0 0 0 -1 0 0 0 0 1 0"/>
   <feTurbulence baseFrequency="1" numOctaves="3" result="result0" type="fractalNoise"/>
   <feColorMatrix result="result4" type="saturate" values="0"/>
   <feComposite in="fbSourceGraphic" in2="result4" k1="1.25" k2="0.5" k3="0.5" operator="arithmetic" result="result2"/>
   <feBlend in="result2" in2="fbSourceGraphic" result="result5"/>
   <feComposite in="result5" in2="fbSourceGraphic" operator="in" result="result3"/>
  </filter>
  <filter id="filter17881" x="-1.7274e-5" y="-7.8557e-6" width="1" height="1" color-interpolation-filters="sRGB">
   <feGaussianBlur stdDeviation="0.00027173865"/>
  </filter>
  <linearGradient id="linearGradient17891" x1="646.31" x2="650.03" y1="-278.71" y2="-280.72" gradientUnits="userSpaceOnUse" xlink:href="#linearGradient17889"/>
  <filter id="filter17881-9" x="-1.7274e-5" y="-7.8557e-6" width="1" height="1" color-interpolation-filters="sRGB">
   <feGaussianBlur stdDeviation="0.00027173865"/>
  </filter>
  <linearGradient id="linearGradient17926" x1="675.9" x2="673.68" y1="-289.47" y2="-287.9" gradientUnits="userSpaceOnUse" xlink:href="#linearGradient17889"/>
  <filter id="filter19203" x="-.82863" y="-1.0521" width="2.6573" height="3.1042" color-interpolation-filters="sRGB">
   <feGaussianBlur stdDeviation="3.7523613"/>
  </filter>
  <filter id="filter19207" x="-.87082" y="-.57431" width="2.7416" height="2.1486" color-interpolation-filters="sRGB">
   <feGaussianBlur stdDeviation="3.7523613"/>
  </filter>
  <filter id="filter19211" x="-.34376" y="-.24858" width="1.6875" height="1.4972" color-interpolation-filters="sRGB">
   <feGaussianBlur stdDeviation="3.7523613"/>
  </filter>
  <filter id="filter19215" x="-.085178" y="-.106" width="1.1704" height="1.212" color-interpolation-filters="sRGB">
   <feGaussianBlur stdDeviation="3.7523613"/>
  </filter>
  <filter id="filter13422" x="-.30268" y="-.4238" width="1.6054" height="1.8476" color-interpolation-filters="sRGB">
   <feGaussianBlur stdDeviation="2.3795865"/>
  </filter>
  <filter id="filter13510" x="-.016426" y="-.065458" width="1.0329" height="1.1309" color-interpolation-filters="sRGB">
   <feGaussianBlur stdDeviation="1.7368982"/>
  </filter>
  <filter id="filter13514" x="-.016852" y="-.090122" width="1.0337" height="1.1802" color-interpolation-filters="sRGB">
   <feGaussianBlur stdDeviation="1.7368982"/>
  </filter>
  <filter id="filter13594" x="-.40258" y="-.14372" width="1.8052" height="1.2874" color-interpolation-filters="sRGB">
   <feGaussianBlur stdDeviation="2.1772625"/>
  </filter>
  <filter id="filter13598" x="-.25383" y="-.127" width="1.5077" height="1.254" color-interpolation-filters="sRGB">
   <feGaussianBlur stdDeviation="2.1772625"/>
  </filter>
  <filter id="filter13814" x="-.11818" y="-.065257" width="1.2364" height="1.1305" color-interpolation-filters="sRGB">
   <feGaussianBlur stdDeviation="1.3893674"/>
  </filter>
  <filter id="filter14082" x="-.052878" y="-.027288" width="1.1058" height="1.0546" color-interpolation-filters="sRGB">
   <feGaussianBlur stdDeviation="0.53082697"/>
  </filter>
  <filter id="filter14523" x="-.070716" y="-.020711" width="1.1414" height="1.0414" color-interpolation-filters="sRGB">
   <feGaussianBlur stdDeviation="0.29662923"/>
  </filter>
  <filter id="filter14683" x="-.1423" y="-.073579" width="1.2846" height="1.1472" color-interpolation-filters="sRGB">
   <feGaussianBlur stdDeviation="0.31848391"/>
  </filter>
  <filter id="filter14730" x="-.85289" y="-.13531" width="2.7058" height="1.2706" color-interpolation-filters="sRGB">
   <feGaussianBlur stdDeviation="1.2018908"/>
  </filter>
  <filter id="filter15022" x="-.36804" y="-.11009" width="1.7361" height="1.2202" color-interpolation-filters="sRGB">
   <feGaussianBlur stdDeviation="0.66596336"/>
  </filter>
  <filter id="filter15058" x="-.32313" y="-.079928" width="1.6463" height="1.1599" color-interpolation-filters="sRGB">
   <feGaussianBlur stdDeviation="0.90583945"/>
  </filter>
  <filter id="filter15433" x="-.015177" y="-.076831" width="1.0304" height="1.1537" color-interpolation-filters="sRGB">
   <feGaussianBlur stdDeviation="1.512787"/>
  </filter>
 </defs>
 <path d="m588.37 194.78c20.29 9.7367 40.579 19.473 41.537 40.113 0.95803 20.64-17.413 52.182-22.128 83.027s4.2266 60.986 5.518 78.896c1.2914 17.909-5.0667 23.586-14.831 26.538-9.7642 2.9521-22.935 3.1792-37.582 1.4762-14.647-1.703-30.769-5.3362-46.779-11.467s-31.905-14.76-47.802-23.39" fill="none" stroke="#000" stroke-width="12"/>
 <path d="m426.17 95.846c0.18073-0.86294 0.18073-1.0235-0.12018-2.1474-0.3009-1.1239-0.90303-3.2113-1.2644-4.8572-0.3614-1.6459-0.48183-2.8502-1.2843-4.4559s-2.2878-3.6128-3.6324-4.6972c-1.3447-1.0843-2.5489-1.2449-3.6735-0.84357s-2.1682 1.3648-2.5495 2.5897c-0.38127 1.225-0.10027 2.7102 0.86343 4.7776 0.96369 2.0674 2.6095 4.7168 3.6072 6.3133 0.99771 1.5966 1.3707 2.1768 2.4548 3.2204s2.8904 2.569 3.9737 2.5488c1.0832-0.02018 1.4445-1.5857 1.6252-2.4486z" fill="#d9cdb7"/>
 <g transform="matrix(1.0462 -.10073 .10073 1.0462 -95.667 750.42)">
  <path d="m582.06-449.81c0.99684-2.2478 3.2244-3.0294 5.1783-4.1628 1.9539-1.1333 3.6343-2.6184 5.7642-4.9046 2.1299-2.2862 4.7092-5.3736 12.878-5.7839s21.925 1.8564 38.099 3.9069c16.173 2.0505 34.762 3.8848 44.868 7.5299 10.106 3.6451 11.728 9.0994 10.094 15.951-1.6334 6.8512-6.5216 15.1-12.61 22.812-6.0881 7.7122-13.376 14.888-20.485 20.817s-14.037 10.61-25.48 14.769c-11.443 4.1587-27.4 7.794-36.004 9.1043-8.6041 1.3103-9.8546 0.29417-12.435-11.821-2.5799-12.115-6.4879-35.329-8.5593-48.793-2.0714-13.464-2.3059-17.176-1.309-19.424z" fill="#131512"/>
  <path d="m608.65-403.37c6.8787-5.3153 16.258-8.4419 23.684-13.288 7.4252-4.846 12.896-11.412 16.336-17.039 3.4391-5.6275 4.846-10.317 6.9566-14.069 2.1105-3.7522 4.9243-6.566 10.253-7.188s13.172 0.94758 19.112 2.7455c5.9404 1.7979 9.9785 3.8238 11.841 6.8692 1.8621 3.0454 1.5494 7.1098-1.3427 13.05-2.8921 5.9401-8.3634 13.756-14.636 20.771-6.2726 7.0151-13.346 13.229-20.068 18.231-6.722 5.0025-13.092 8.7933-19.873 11.861-6.7806 3.0679-13.971 5.4128-22.364 7.5135s-18.589 4.0742-23.045 2.5114c-4.4558-1.5628-3.4711-6.6042-0.79013-12.877s7.058-13.776 13.937-19.092z" fill="#484944" filter="url(#filter19215)" opacity=".59827"/>
  <g fill="#c0c1b9">
   <path d="m612.25-412.86c2.8922-1.407 6.9567-2.9702 10.161-5.7839 3.2044-2.8136 5.5492-6.878 6.878-11.02s1.6415-8.3631 0.62591-11.411c-1.0156-3.0484-3.3604-4.9243-5.6273-5.6283-2.2669-0.70398-4.4554-0.23502-6.1755 1.954-1.7201 2.189-2.9707 6.0971-3.9868 9.7708s-1.7977 7.1128-3.6735 9.9263-4.8459 5.002-5.7837 7.5821c-0.93781 2.5801 0.15645 5.5502 1.5633 6.4093 1.4068 0.85911 3.1264-0.39147 6.0186-1.7984z" filter="url(#filter19211)" opacity=".59827"/>
   <path d="m597.33-441.71c-0.19327 1.9904 1.1885 4.8091 2.2108 7.2963 1.0224 2.4872 1.6856 4.6426 2.4868 5.2224 0.80122 0.57974 1.7408-0.41509 3.0672-2.7362s3.0397-5.9689 2.4324-8.5388c-0.60729-2.57-3.5365-4.0622-5.886-4.2284-2.3494-0.16619-4.118 0.99445-4.3113 2.9848z" filter="url(#filter19207)" opacity=".59827"/>
   <path d="m585.79-451.66c0.44998 0.60596 2.2477 1.0749 3.9068 2.1844 1.659 1.1095 3.1796 2.8586 4.3117 3.8325 1.1321 0.9739 1.8755 1.1732 2.2675 0.807 0.39201-0.36622 0.43387-1.2986-0.48265-2.6832-0.91652-1.3846-2.7924-3.2214-4.3947-4.3356-1.6023-1.1141-2.931-1.5049-4.0454-1.3293s-2.0132 0.91819-1.5633 1.5242z" filter="url(#filter19203)" opacity=".59827"/>
  </g>
  <ellipse transform="rotate(-12)" cx="663.58" cy="-278.84" rx="17.078" ry="42.281"/>
  <ellipse transform="matrix(.90203 -.20981 .2004 .94828 48.816 -8.8517)" cx="663.39" cy="-278.71" rx="17.078" ry="42.281" fill="none" filter="url(#filter17881)" stroke="url(#linearGradient17891)" stroke-width="1.5236"/>
  <ellipse transform="matrix(.90203 -.20981 .2004 .94828 48.263 -5.9166)" cx="663.39" cy="-278.71" rx="17.078" ry="42.281" fill="none" filter="url(#filter17881-9)" stroke="url(#linearGradient17926)" stroke-width=".89992"/>
 </g>
 <g transform="translate(-313.22 452.85)">
  <path transform="matrix(-1 0 0 1 -137.93 320.72)" d="m-916.86-682.25c-1.672-0.0353-4.113 0.14539-7.8437 0.43555-9.9488 0.77375-29.07 2.3214-45.375 6.8535-16.305 4.5321-29.791 12.049-41.453 20.008-11.662 7.959-21.501 16.359-27.912 27.082-6.4115 10.723-9.3947 23.766-11.199 30.512-1.5438 5.7712-2.2236 6.9269-2.8379 7.4883 0 1e-3 0 2e-3 -0.01 4e-3a21.908 72.603 80.641 0 0-0.1641 0.14063c-0.047 0.0373-0.093 0.0769-0.1406 0.11328-0.5892 0.45324-1.231 0.98116-1.7012 1.5801a21.908 72.603 80.641 0 0-4.2461 8.9004l-0.094 0.01 4.5879 23.506v4e-3a21.908 72.603 80.641 0 0 0.096 0.49219 21.908 72.603 80.641 0 0 0 0.0137l0.1347 0.69336 0.064-8e-3a21.908 72.603 80.641 0 0 74.668 8.7285 21.908 72.603 80.641 0 0 68.33-33.387 21.908 72.603 80.641 0 0-0.1777-0.8125l-4.2031-21.527a21.908 72.603 80.641 0 0-0.074-0.875 21.908 72.603 80.641 0 0-9.6738-8.6914c-2.3458-3.3537-5.2084-7.5989-6.0117-11.701-1.0041-5.128 1.3071-9.7221 3.6348-12.938 2.3276-3.2154 4.6435-4.9972 7.5703-6.3398s6.4635-2.2458 8.4531-2.8086c1.9896-0.56277 2.4321-0.78466 3.1504-4.2109s1.7131-10.059 1.1055-16.193c-0.6077-6.1348-2.8186-11.772-4.3106-14.592-0.9325-1.7621-1.5844-2.4216-4.3711-2.4805z" fill="#e5d9c4" filter="url(#filter5327-5-6)" opacity=".996"/>
  <path d="m919.07-264.88c0.82921 3.2616 1.6582 6.5225-0.0282 9.0096-1.6864 2.487-5.8868 4.2004-11.165 5.7202-5.2783 1.5198-11.634 2.8462-20.947 3.0395s-21.583-0.74629-31.863-2.0728-18.57-3.0399-26.557-5.1402c-7.9865-2.1003-15.669-4.5874-21.623-6.9486s-10.181-4.5964-14.093-6.9842c-3.9112-2.3878-7.5066-4.928-9.4214-7.3896-1.9149-2.4616-2.1494-4.8456-1.9348-6.6627 0.2146-1.8172 0.87899-3.0677 1.9144-4.1818s2.4423-2.091 3.8504-3.0689" fill="none" filter="url(#filter17574)" opacity=".69075" stroke="#000" stroke-width="1px"/>
  <path transform="matrix(-1 0 0 1 123.97 373.6)" d="m-797.85-632c0.52608 2.4814 1.0519 4.9616 3.4351 6.9506 2.3832 1.989 6.6226 3.4873 12.008 4.8899 5.3858 1.4026 11.917 2.7095 21.201 2.9126 9.2837 0.20306 21.319-0.6974 31.482-1.9067 10.163-1.2093 18.453-2.7272 26.44-4.7298 7.9864-2.0026 15.669-4.4897 21.623-6.8509s10.181-4.5964 14.014-7.0623c3.833-2.4659 7.272-5.1624 9.1869-7.6242s2.3057-4.6893 2.5157-6.245 0.23897-2.4397 0.034-3.4068c-0.20499-0.96719-0.64448-2.0177-1.0845-3.0695" fill="none" filter="url(#filter17606)" opacity=".18592" stroke="#000" stroke-width=".5"/>
  <g fill="#c8bda7">
   <path d="m775.57-327.05c2.976 1.2379 9.9438 2.2433 14.954 7.7672 5.0098 5.5239 8.0619 15.565 8.2187 24.798 0.15681 9.2329-2.5811 17.657 1.1669 23.167 3.748 5.5099 13.98 8.1049 15.877-1.0587 1.8964-9.1636-4.5423-30.086-12.401-41.92-7.8588-11.834-17.137-14.577-22.167-15.884-5.0296-1.3072-5.8089-1.1777-6.7077-0.37751-0.89879 0.80021-1.916 2.2707 1.06 3.5087z" filter="url(#filter17318)" opacity=".60694"/>
   <path d="m782.27-334.87c2.9299 0.88402 9.0096 1.6578 13.619 3.9515 4.6096 2.2937 7.66 5.9977 9.9758 10.237 2.3158 4.2396 3.8739 9.0252 5.5043 15.105 1.6304 6.0797 3.3437 13.486 4.5044 18.294s1.7687 7.0193 3.6481 10.474c1.8794 3.4544 5.0297 8.1521 7.6545 8.4834 2.6249 0.33124 4.725-3.7033 4.0344-12.187-0.69063-8.4836-4.1725-21.416-9.3952-31.144s-12.187-16.249-18.266-19.953c-6.0796-3.7035-11.275-4.5878-14.979-5.1305s-6.3551-0.78379-7.6822-0.39657c-1.3271 0.38722-1.5482 1.382 1.3818 2.2661z" filter="url(#filter17322)" opacity=".60694"/>
   <path d="m787.38-345.25c11.482 1.8657 31.984 4.896 46.884 12.642s24.199 20.207 30.396 28.718c6.197 8.5117 9.292 13.074 10.781 17.631s1.373 9.111 0.68611 13.261c-0.68691 4.1502-1.9444 7.8973 1.9486 10.356 3.893 2.4585 12.935 3.6286 19.556 3.6608 6.6211 0.0322 10.821-1.0732 12.7-2.8412s1.4368-4.1998-0.55291-11.938-5.5269-20.781-12.38-31.946c-6.8532-11.165-17.023-20.45-28.48-27.729-11.457-7.2797-24.357-12.618-37.059-16.69-12.701-4.0723-25.28-6.9106-34.815-7.7248-9.5347-0.81422-16.024 0.39611-19.862 2.289-3.8382 1.8929-5.024 4.4676-4.3858 6.1055 0.63827 1.6379 3.0992 2.3391 14.581 4.2048z" filter="url(#filter17406)" opacity=".84971"/>
   <path d="m810.57-266.67c4.6116 1.0552 11.837 2.5805 24.057 3.5376 12.22 0.95715 29.434 1.3463 36.667-2.8087 7.2333-4.155 4.4861-12.855 13.427-12.573s29.568 9.5473 26.985 15.5c-2.583 5.9531-28.376 8.5942-46.197 8.8988-17.821 0.3046-27.669-1.7276-35.72-3.5644s-14.304-3.4782-19.033-4.8942c-4.7297-1.416-7.9359-2.6065-9.1481-3.6228-1.2122-1.0163-0.42891-1.858 0.96212-1.9861 1.391-0.12812 3.3886 0.45694 8.0002 1.5121z" filter="url(#filter17314)" opacity=".60694"/>
  </g>
  <path d="m784.94-339.15c7.7107 1.7512 19.899 4.666 28.444 10.534 8.545 5.8684 13.446 14.689 16.224 22.496 2.7773 7.8077 3.4311 14.602 4.2594 20.232 0.82832 5.6294 1.831 10.093 4.4622 13.472 2.6312 3.3783 6.8898 5.6711 12.81 6.3142s13.503-0.36283 16.883-3.6121c3.3804-3.2492 2.5663-8.6955 0.22053-15.69-2.3457-6.9948-6.1434-15.299-14.495-24.08-8.3514-8.7806-21.223-17.964-32.507-23.605s-20.977-7.7401-27.941-9.3373c-6.9647-1.5973-11.2-2.6932-14.501-2.5513-3.3016 0.14186-5.6686 1.5219-5.2355 2.5059 0.4331 0.98397 3.6655 1.5713 11.376 3.3225z" fill="#fcfaec" filter="url(#filter17326)" opacity=".60694"/>
  <path d="m774.92-330.47c2.6189 0.87884 7.6213 1.6605 12.116 3.869s8.4805 5.843 11.177 7.5816c2.6966 1.7386 4.1035 1.5823 4.5526 0.35186 0.44913-1.2305-0.0589-3.5362-2.4034-6.1158-2.3445-2.5796-6.526-5.4324-11.685-7.4259-5.1588-1.9935-11.294-3.1268-14.265-3.1654-2.9707-0.0386-2.7753 1.0166-2.5604 2.0327 0.21499 1.0161 0.44947 1.9932 3.0684 2.872z" fill="#fcfaec" filter="url(#filter17330)" opacity=".60694"/>
  <g fill="#c8bda7">
   <path d="m821.46-249.68c5.1959 1.1609 14.923 4.0349 26.366 5.6376 11.442 1.6027 24.593 1.9342 31.391 2.4322s7.2402 1.1612 7.0186 4.2562c-0.22154 3.095-1.1058 8.6218-2.1588 11.538-1.053 2.9158-2.4834 3.2734-8.9509 2.6728-6.4674-0.60064-18.293-2.1625-29.344-4.2761-11.051-2.1136-21.227-4.7397-26.423-6.3974-5.1958-1.6577-5.3064-2.3209-5.196-4.8082 0.11041-2.4873 0.44202-6.7982 0.93954-9.2306s1.1607-2.985 6.3566-1.8242z" filter="url(#filter17474)"/>
   <path d="m789.12-262.43c-1.3193 3.0227-2.9449 9.6952-2.995 13.165-0.0501 3.4703 1.4739 3.739 2.792 0.71676 1.3181-3.0222 2.4314-9.336 2.4828-12.807 0.0514-3.4708-0.96043-4.0982-2.2798-1.0755z" filter="url(#filter17510)"/>
   <path d="m799.72-253.57c-1.3193 3.0227-2.9449 9.6952-2.995 13.165-0.0501 3.4703 1.4739 3.739 2.792 0.71676 1.3181-3.0222 2.4314-9.336 2.4828-12.807 0.0514-3.4708-0.96043-4.0982-2.2798-1.0755z" filter="url(#filter15726)"/>
  </g>
  <path transform="matrix(-1 0 0 1 1724 -152.88)" d="m945.08-208.65c-1.672-0.0353-4.113 0.14539-7.8437 0.43555-9.9488 0.77375-29.07 2.3214-45.375 6.8535-16.305 4.5321-29.791 12.049-41.453 20.008-11.662 7.959-21.501 16.359-27.912 27.082-6.4115 10.723-9.3947 23.766-11.199 30.512-1.5438 5.7712-2.2236 6.9269-2.8379 7.4883 0 1e-3 0 2e-3 -0.01 4e-3a21.908 72.603 80.641 0 0-0.1641 0.14063c-0.047 0.0373-0.093 0.0769-0.1406 0.11328-0.5892 0.45324-1.231 0.98116-1.7012 1.5801a21.908 72.603 80.641 0 0-4.2461 8.9004l-0.094 0.01 4.5879 23.506v4e-3a21.908 72.603 80.641 0 0 0.096 0.49219 21.908 72.603 80.641 0 0 0 0.0137l0.1347 0.69336 0.064-8e-3a21.908 72.603 80.641 0 0 74.668 8.7285 21.908 72.603 80.641 0 0 68.33-33.387 21.908 72.603 80.641 0 0-0.1777-0.8125l-4.2031-21.527a21.908 72.603 80.641 0 0-0.074-0.875 21.908 72.603 80.641 0 0-9.6738-8.6914c-2.3458-3.3537-5.2084-7.5989-6.0117-11.701-1.0041-5.128 1.3071-9.7221 3.6348-12.938 2.3276-3.2154 4.6435-4.9972 7.5703-6.3398s6.4635-2.2458 8.4531-2.8086c1.9896-0.56277 2.4321-0.78466 3.1504-4.2109s1.7131-10.059 1.1055-16.193c-0.6077-6.1348-2.8186-11.772-4.3106-14.592-0.9325-1.7621-1.5844-2.4216-4.3711-2.4805z" fill="#e5d9c4" filter="url(#filter5327-5-7-0)" opacity=".085"/>
 </g>
 <g transform="matrix(1 0 0 1.2352 -1129.8 -913.47)">
  <g transform="translate(-2443.3 -46.931)">
   <path d="m4018.3 926.86c-0.6208 11.167-1.4674 23.358-23.818 35.718s-66.203 24.889-109.63 29.715c-43.431 4.8257-86.437 1.9473-109.8-6.5183s-27.092-22.519-28.87-34.202-1.6087-20.996 1.6914-25.737c3.3001-4.7414 9.7386-4.9108 12.617-0.42952 2.8783 4.4813 2.2001 13.637 3.1347 22.394 0.9346 8.7575 3.4476 17.02 23.687 23.051 20.24 6.031 58.186 9.7764 96.65 5.8942 38.464-3.8822 77.441-15.391 97.246-25.317 19.805-9.9254 20.437-18.267 20.667-27.461s0.056-19.238 2.9633-24.141c2.9071-4.903 8.8934-4.6636 11.689 0.52856 2.7952 5.1921 2.4003 15.336 1.7795 26.503z" fill="#e5d9c4"/>
   <path d="m4011.6 935.62c-0.1764 5.6009-0.7689 14.913-21.976 25.603-21.207 10.69-63.028 22.757-104.13 27.202s-81.484 1.2665-103.3-5.4661c-21.812-6.7325-25.052-17.02-26.915-24.681-1.8626-7.6619-2.3476-12.698-2.3394-15.147 0.01-2.4487 0.5084-2.3093 1.1151-0.32662 0.6066 1.9827 1.3161 5.7828 2.7634 12.796 1.4474 7.0128 3.5951 17.056 24.956 23.89 21.361 6.834 61.917 10.393 102.84 6.0877 40.919-4.3055 82.196-16.475 102.98-26.857 20.786-10.383 21.08-18.978 21.394-25.674 0.314-6.696 0.6488-11.491 1.0368-12.309 0.3881-0.81761 0.8292 2.3426 1.1698 4.8674 0.3405 2.5249 0.5805 4.4142 0.4041 10.015z" fill="#e0d8c2" filter="url(#filter13432)" opacity=".5915"/>
   <path d="m4007.1 935.54c0.3773 3.371 0.8921 9.4508-19.402 18.734-20.295 9.283-61.397 21.769-102.14 26.424-40.744 4.6544-81.125 1.476-101.64-3.296-20.51-4.772-21.146-11.138-21.423-14.729-0.2762-3.5912-0.1925-4.4068-0.2146-5.2985-0.022-0.89175-0.1506-1.8598 0.2921-1.1197s1.4496 3.1724 1.7217 6.6601-0.197 7.9408 19.806 12.158 60.477 8.1697 101.1 3.7594c40.62-4.4102 81.381-17.182 101.3-26.37 19.915-9.1873 18.981-14.79 18.651-18.343-0.3297-3.5532-0.055-5.0563 0.2286-5.2602 0.2835-0.2039 0.5749 0.89102 0.8407 1.7696s0.5058 1.5408 0.8831 4.9118z" fill="#e0d8c2" filter="url(#filter13440)" opacity=".5915"/>
  </g>
  <g fill="#9b9078">
   <path d="m1317.6 916.57c1.568 3.5942 5.2795 10.359 16.983 14.758 11.704 4.3995 31.398 6.4348 49.028 7.4524 17.63 1.0176 33.194 1.0176 49.088 0.0598 15.894-0.95789 32.117-2.8735 46.422-5.6819 14.305-2.8084 26.691-6.5092 37.731-10.307 11.04-3.7977 20.733-7.692 27.672-11.343 6.9387-3.6512 11.123-7.0593 14.044-10.17s4.578-5.9254 5.1394-7.2007c0.5615-1.2752 0.027-1.011-0.8293 0.19832-0.8559 1.2093-2.0321 3.3629-4.7912 6.1514s-7.1009 6.2118-13.06 9.4051c-5.9595 3.1933-13.536 6.1564-21.912 9.1387-8.3752 2.9823-17.573 5.9917-26.974 8.4689s-19.002 4.4226-30.325 5.9483c-11.323 1.5257-24.276 2.6227-30.668 3.1943-6.3917 0.57159-6.1799 0.61397-8.9315 0.76199s-8.466 0.40201-17.348 0.33978c-8.8818-0.0622-20.93-0.44075-31.265-1.1837-10.335-0.74296-18.955-1.8504-25.779-3.2272-6.8245-1.3768-11.853-3.023-16.318-4.7532-4.4646-1.7302-8.365-3.5445-11.104-5.6926-2.7394-2.1481-4.3171-4.6303-5.3265-6.4786-1.0095-1.8483-1.4503-3.0626-1.9589-3.4592-0.5085-0.39655-1.0846 0.0261 0.4834 3.6203z" filter="url(#filter13514)" opacity=".19935"/>
   <path d="m1320.9 912.26c1.2874 2.7094 3.8615 8.127 14.637 12.272 10.776 4.1451 29.752 7.0185 47.023 8.4552 17.271 1.4366 32.835 1.4366 48.729 0.47877 15.894-0.95789 32.117-2.8735 46.422-5.6819 14.305-2.8084 26.691-6.5092 37.752-10.561 11.061-4.0517 20.797-8.4539 27.736-12.105 6.9389-3.6513 11.081-6.5514 13.324-9.514 2.2434-2.9627 2.5884-5.9884 2.3671-7.5179-0.2214-1.5295-1.0102-1.5616-1.57-0.35216-0.5599 1.2094-0.8896 3.6594-3.0349 6.49-2.1454 2.8306-6.1062 6.0422-11.706 9.3414-5.5997 3.2992-12.838 6.6855-21.086 9.6892-8.248 3.0037-17.523 5.6294-26.928 8.1079s-18.921 4.8046-30.202 6.5208c-11.281 1.7162-24.234 2.8132-30.626 3.3848-6.3917 0.57159-6.1799 0.61397-8.9315 0.76199s-8.466 0.40201-17.348 0.33978c-8.8818-0.0622-20.93-0.44075-31.235-1.3483-10.305-0.90756-18.865-2.3442-25.54-3.8108-6.6749-1.4666-11.464-2.9632-15.494-4.9028-4.0306-1.9396-7.3025-4.3225-9.4732-6.5306-2.1708-2.2081-3.2397-4.2413-3.8601-6.2094-0.6205-1.9681-0.7919-3.8708-1.091-3.8628-0.299 8e-3 -0.7254 1.9272-0.9385 2.8864s-0.2131 0.95925 1.0742 3.6687z" filter="url(#filter15433)" opacity=".2549"/>
   <path d="m1326.1 935.31c3.7558 2.1495 9.9213 5.4417 23.361 7.7462 13.44 2.3045 34.152 3.6214 48.669 4.0387 14.517 0.41726 22.718-0.0582 31.159-0.6718 8.4409-0.61362 17.061-1.3619 26.998-2.9184 9.9375-1.5565 21.192-3.9211 30.746-6.2213 9.5547-2.3002 17.41-4.5358 25.348-6.8813 7.9383-2.3454 15.96-4.8005 22.246-7.2239 6.2859-2.4234 10.836-4.815 14.085-6.5823 3.2488-1.7673 5.1959-2.9102 7.5452-4.3706 2.3494-1.4604 5.1007-3.2382 8.1801-6.2012 3.0793-2.9629 6.4867-7.1111 8.2858-11.46 1.7992-4.3491 1.9897-8.8995 1.7885-10.392-0.2011-1.4923-0.7937 0.0739-1.2223 1.5781-0.4287 1.5042-0.6934 2.946-1.4423 4.8958s-1.9819 4.4078-3.9507 7.0362-4.6734 5.4274-8.1125 8.1541c-3.439 2.7268-7.6125 5.3812-13.53 8.3248s-13.58 6.1762-20.884 8.8102c-7.3034 2.634-14.247 4.6693-22.449 6.8544-8.2014 2.185-17.66 4.5197-26.19 6.3156s-16.133 3.0531-23.796 4.0109c-7.6626 0.95786-15.385 1.6163-24.754 2.2449-9.3688 0.62858-20.384 1.2272-31.069 1.0178-10.686-0.20945-21.042-1.2271-28.478-2.073-7.4366-0.84594-11.953-1.5202-18.288-2.9316s-14.486-3.5599-19.411-4.8092c-4.9241-1.2494-6.6203-1.5995-7.9626-1.8587-1.3422-0.25914-2.3303-0.4272-2.1519-8e-3 0.1784 0.41944 1.5233 1.4257 5.2791 3.5752z" filter="url(#filter13510)" opacity=".26471"/>
  </g>
 </g>
 <path transform="matrix(-1 0 0 1 2415.6 -1387.5)" d="m1974.2 1572.1c-0.1808 6.2175-0.084 11.98 1.4036 15.623 1.4877 3.643 4.3593 5.1632 6.671 6.0753 2.3117 0.912 4.0437 1.2078 4.6156 0.6155 0.5719-0.5922-0.021-2.0735-1.0828-3.6811-1.0622-1.6077-2.5926-3.3394-3.2345-7.1601-0.6418-3.8207-0.3939-9.7297-1.4579-15.25-1.0639-5.5205-3.4404-10.652-4.8581-9.8824-1.4177 0.7699-1.8761 7.4421-2.0569 13.66z" fill="#f0ecd9" filter="url(#filter13594)"/>
 <g transform="translate(-4245.2 -1401.7)">
  <path d="m4416.7 1691.1 257.64-27.592 42.191 35.6-265.99 28.173z" fill="#969791"/>
  <path d="m4384.5 1881.1s0-27.267 0.1706-29.651c0.1705-2.3837 0.5117-7.1519 3.3874-12.15 2.8757-4.998 8.2857-10.225 11.174-13.296 2.8884-3.0716 3.2551-3.9885 3.6219-5.8681 0.3669-1.8796 0.7337-4.7222 2.3193-6.9129 1.5856-2.1906 4.4669-3.7707 5.9338-5.0539s1.5586-2.2919 1.6504-3.3014c0-39.428 0-78.857 0.2188-98.441s0.6553-19.325 9.6416-9.697c8.9864 9.6279 26.521 28.622 35.886 38.533 9.3647 9.9109 10.557 10.736 10.464 45.674-0.092 34.937-1.4677 103.98-4.4016 138.69-2.9339 34.707-7.4269 35.074-12.837 34.661s-11.737-1.6045-14.901-2.2007c-3.1641-0.5961-4.2645-1.6965-12.288-12.837s-24.07-33.423-32.081-44.971c-8.0111-11.548-7.9854-12.362-7.9725-12.77l0.013-0.4076z" fill="#5e5f59"/>
  <path d="m4416.7 1691.1 257.64-27.592 42.191 35.6-265.99 28.173z" fill="#505050" filter="url(#filter4760)" opacity=".28758"/>
  <path d="m4495.8 1720.3c44.37-4.997 131.85-14.534 175.77-19.026 43.923-4.4926 44.29-3.9424 44.61-3.4151 0.3208 0.5273 0.5959 1.0316 1.3182 2.0517 0.7222 1.0201 1.8913 2.556 2.4067 4.7567 0.5153 2.2006 0.3778 5.0662 0.3605 25.335-0.017 20.269 0.086 57.939 0.2347 77.034 0.149 19.095 0.3435 19.614 1.284 20.586 0.9406 0.9724 2.6264 2.3989 4.3724 5.403 1.746 3.0042 3.5702 7.6298 5.0866 11.053 1.5165 3.423 2.7632 5.7195 4.676 8.8318 1.9129 3.1123 4.5064 7.0674 6.9999 11.126 2.4935 4.0581 4.887 8.2189 5.8426 12.156 0.9557 3.9372 0.4743 7.6509 0.291 12.752-0.1833 5.1008-0.069 11.588 0.023 15.726 0.092 4.1378 0.1605 5.9258-1.0772 7.2778-1.2377 1.3519-3.7823 2.2688-8.526 3.5205-4.7438 1.2517-11.647 2.8289-56.694 9.4427s-128.21 18.259-173.51 24.209c-45.297 5.9497-52.722 6.2037-58.476 5.9975-5.754-0.2062-9.8371-0.8728-12.981-2.0593-3.1438-1.1866-5.3479-2.8935-6.1306-9.5999-0.7828-6.7065-0.1428-18.412 0.4382-25.831 0.5811-7.4195 1.0963-10.511 3.7548-17.708 2.6584-7.1975 7.4564-18.479 9.7263-24.314 2.2699-5.8353 2.0105-6.2244 1.9452-7.1647-0.065-0.9403 0.065-2.4315 0.5183-3.7935 0.4538-1.3619 1.2318-2.5938 1.621-3.21 0.3891-0.6161 0.3891-4.5064 0.3891-4.5064s0-131.49-0.1944-131.36-0.5834 0.3889-0.1474 0.2897c0.436-0.099 1.6966-0.5569 46.066-5.554z" fill="#373735"/>
  <path d="m4718.4 1828.6 24.325 43.631-306.96 38.493 18.604-48.624z" fill="#4a4a48"/>
  <g fill="#6a6a68">
   <path d="m4717.2 1825.6 1.1867 2.9156-264.87 35.487 1.1603-3.8354z" filter="url(#filter6334)" style="mix-blend-mode:normal"/>
   <path d="m4742.7 1872.2 0.5133 4.5642-310.85 37.493 5.9553-7.5076z" filter="url(#filter6326)" style="mix-blend-mode:normal"/>
   <path d="m4730.3 1849.5 2.4523 6.0416-289.57 36.373 3.0375-6.9239z" filter="url(#filter6330)" stroke="#6a6964" stroke-width="1px" style="mix-blend-mode:normal"/>
  </g>
  <path d="m4719.5 1831.3 2.6966 1.9805-270.65 36.31 1.573-3.6978z" fill="#171715" filter="url(#filter6338)" style="mix-blend-mode:normal"/>
  <path d="m4434 1906.3-1.6759 7.8966-46.89-64.561 2.0551-7.6075z" fill="#6a6a68" filter="url(#filter6362)" stroke="#6a6964" stroke-width="1px" style="mix-blend-mode:normal"/>
  <path d="m4448.7 1863.2-14.264 43.469-46.89-64.561 23.063-29.005z" fill="#4a4a48" filter="url(#filter6366)" style="mix-blend-mode:normal"/>
  <g fill="#6a6a68" stroke="#6a6964" stroke-width="1px">
   <path d="m4449.4 1857.8-0.7033 5.3679-39.498-52.695 2.8332-2.7446z" filter="url(#filter6354)" style="mix-blend-mode:normal"/>
   <path d="m4441.4 1881.9-1.6759 7.8966-41.249-58.92 4.0003-4.3006z" filter="url(#filter6358)" style="mix-blend-mode:normal"/>
   <path d="m4708.8 1694.8 3.6194 4.6315-259.75 28.749-1.342-4.8767z" filter="url(#filter6342)" style="mix-blend-mode:normal"/>
  </g>
  <path d="m4451.4 1724.4-1.8334 5.968-34.536-32.341 0.8861-7.5368z" fill="#4a4a48" filter="url(#filter6350)" style="mix-blend-mode:normal"/>
  <path d="m4426.4 1935.1c1.0473 6.6455 3.3041 9.6791 7.0995 11.978 3.7955 2.2985 9.1291 3.8626 12.035 2.3242 2.9056-1.5383 3.3846-6.1806 3.8635-10.822-0.4789-7.6461-0.9577-15.291-1.1056-20.169-0.1478-4.8776 0.036-6.9866 0.815-10.196 0.7794-3.2096 2.1548-7.5193 2.9801-11.279 0.8253-3.7595 1.1004-6.9688 1.6505-9.7657 0.5502-2.7969 1.3754-5.181 2.109-8.3445 0.7337-3.1635 1.3755-7.1064 1.6965-9.0782 0.321-1.9719 0.321-9.9496 0.321-9.9496s0-131.22-0.3834-131.91c-0.3834-0.6945-1.1508-2.0847-3.3303-2.7616-2.1795-0.677-5.7714-0.6395-7.4513 1.0648-1.6799 1.7044-1.4469 5.0744-1.3305 6.7589 0.1165 1.6845 0.1165 127.13-0.7089 129.33-0.8254 2.201-2.4759 6.6023-3.7597 10.729-1.2837 4.1265-2.2007 7.9777-3.1177 11.829-0.9169 3.8513-1.8339 7.7025-3.8512 11.554s-5.135 7.7022-6.7753 14.757-1.8032 17.312-0.7559 23.957z" fill="#030305" filter="url(#filter10490)" opacity=".76471"/>
  <path d="m4733.4 1909.8c2.395 5.1202 6.1755 4.0904 8.3758 2.4896 2.2004-1.6007 2.8211-3.7729 3.0399-10.04 0.2188-6.267 0.035-16.628-0.4686-22.543-0.504-5.9144-1.3293-7.3815-2.3209-9.4065s-2.2179-4.7606-4.0517-7.9242c-1.8338-3.1635-4.3096-6.8314-6.7397-11.187s-4.8142-9.3989-7.1524-13.525c-2.3381-4.1264-4.6305-7.3358-5.8916-9.376s-1.4903-2.9113-1.6051-3.3475c-0.1148-0.4361-0.1148-116.11-0.7033-117.15-0.5885-1.042-1.7661-3.1271-3.2626-4.7735-1.4964-1.6465-3.3121-2.8538-4.3057-1.8111s-1.1637 4.3349-1.2488 5.9807c-0.085 1.6458-0.085 123.79 0.7406 125.53s2.4761 5.2273 4.4935 9.1703c2.0173 3.943 4.4014 8.3443 5.4097 12.104s0.6415 6.8771 2.2009 10.178c1.5595 3.3011 5.0439 6.7855 6.8774 9.8116s2.0169 5.5936 2.6129 12.513c0.5961 6.9197 1.6047 18.191 3.9997 23.311z" fill="#030305" filter="url(#filter10486)" opacity=".76471"/>
 </g>
 <path d="m293.52 294.6c0.59297 1.651 1.8628 4.0215 3.6485 5.7406 1.7857 1.7191 4.2258 2.8519 5.8339 4.6301s2.4548 4.2333 2.7564 6.14c0.3016 1.9067 0.0588 3.2653 0.74603 3.8715 0.68725 0.60621 2.3036 0.46081 5.6492 0.11489s8.4203-0.89228 13.096-1.3972 8.9513-0.96843 10.897-1.299 1.5599-0.52874 1.4883-1.9849c-0.0716-1.4561 0.17212-4.1703 2.1567-6.5439 1.9846-2.3736 5.7095-4.4054 7.9528-6.3099s3.0052-3.6824 3.0481-4.952c0.0429-1.2696-0.63437-2.0316-8.4232-2.3707-7.7888-0.33918-22.689-0.25451-32.086-0.0429-9.3974 0.21162-13.292 0.55025-15.282 1.1857s-2.0746 1.5667-1.4817 3.2177z" fill="#0f100b" filter="url(#filter9774)" opacity=".96078"/>
 <g transform="translate(-3838.3 -863.64)">
  <ellipse cx="4159" cy="1150.3" rx="30.658" ry="16.718" fill="#0f100b"/>
  <path d="m4179.6 1131.2c-0.088-0.01-0.1951 0.01-0.3164 0.086-0.2427 0.1548-0.5334 0.5499-1.3144 2.3633-0.3704 0.8599-0.8451 2.0397-1.1367 3.2129a30.26 15.268 0 0 0-17.719-2.8907 30.26 15.268 0 0 0-17.41 2.7813c-0.1671-1.2767-0.5665-2.5837-0.8437-3.4551-0.5237-1.6464-0.5829-1.7358-0.7324-1.7812-0.1495-0.046-0.3889-0.046-0.6289 0.9121-0.24 0.9582-0.4792 2.873-1.4219 4.414-0.9062 1.4813-2.4318 2.5921-3.2441 3.2852a30.26 15.268 0 0 0-5.9786 9.1113 30.26 15.268 0 0 0 30.26 15.268 30.26 15.268 0 0 0 30.26-15.268 30.26 15.268 0 0 0-5.7539-8.959c-0.851-0.7031-2.052-1.7105-2.7481-3.0566-0.8528-1.6496-0.9133-3.781-0.9433-4.8477-0.03-1.0671-0.03-1.0663-0.1231-1.1113-0.046-0.022-0.1169-0.056-0.2051-0.064z" fill="#e5d9c4"/>
  <g fill="none">
   <path d="m4136.9 1146c5.1455 3.0343 10.435 6.1532 15.909 7.5983 5.4743 1.4452 11.117 1.2627 16.239 0.02 5.1221-1.2431 9.4114-3.471 13.768-5.7337" filter="url(#filter10242)" opacity=".80065" stroke="#615c47" stroke-width="3"/>
   <path transform="matrix(1 0 0 1.393 -.089795 -449)" d="m4139.3 1137.6c4.6873 1.8876 9.3733 3.7746 14.775 4.679 5.4016 0.9043 11.519 0.8265 15.932-0.282 4.4127-1.1085 7.1214-3.2474 9.8299-5.3862" filter="url(#filter9974)" stroke="#60573e" stroke-width="3"/>
   <path d="m4185 1156.2c-4.6083-1.9151-9.2178-3.8308-11.571-6.2262-2.3528-2.3955-2.4477-5.2711-2.4543-7.2805-0.01-2.0094 0.075-3.1524 0.1566-4.2961" filter="url(#filter10246)" opacity=".80065" stroke="#564630" stroke-width="2"/>
   <path d="m4133.5 1156.8c4.6083-1.9151 9.2178-3.8308 11.571-6.2262 2.3528-2.3955 2.4477-5.2711 2.4543-7.2805 0.01-2.0094-0.075-3.1524-0.1566-4.2961" filter="url(#filter10250)" opacity=".80065" stroke="#564630" stroke-width="2"/>
  </g>
  <ellipse cx="4159.7" cy="1132" rx="20.09" ry="9.9766" fill="#948a75"/>
  <g fill="none" stroke="#221705" stroke-width=".718">
   <path d="m4152 1137.1v4.0363" opacity=".43791"/>
   <path d="m4146.6 1135.6v4.0363" opacity=".43791"/>
   <path d="m4143.4 1133.7v4.0363" opacity=".43791"/>
   <path d="m4171.1 1136.2v4.0363" opacity=".43791"/>
  </g>
  <ellipse cx="4159.3" cy="1130.6" rx="19.669" ry="7.4274" fill="#766c57"/>
  <g fill="none" stroke="#221705" stroke-width=".718">
   <path d="m4157.3 1137.9v4.0363" opacity=".43791"/>
   <path d="m4159.8 1138v4.0363" opacity=".43791"/>
   <path d="m4162 1137.9v4.0363" opacity=".43791"/>
   <path d="m4166 1137.5v4.0363" opacity=".43791"/>
  </g>
  <ellipse cx="4159.9" cy="1130" rx="15.396" ry="5.8139" fill="#221705" filter="url(#filter8643)"/>
  <path transform="matrix(1.2553 0 0 1.2144 -1059 -238.15)" d="m4145.9 1100.7c1.0635 0.6243 2.16 1.268 3.2854 2.0294 1.1254 0.7615 2.2962 1.65 2.9367 2.8461s0.7508 2.6984 0.6201 4c-0.1306 1.3017-0.4978 2.3897-0.9514 3.422-0.4535 1.0324-0.9733 1.9632-1.6982 2.6597s-1.6488 1.1482-2.2306 1.4424c-0.5817 0.2943-0.82 0.4306-1.0581 0.5668" fill="none" filter="url(#filter4136)" stroke="#000" stroke-width="1.9578"/>
  <path d="m4145.7 1122c-0.043 4.2904-0.086 8.5817 4.7208 10.762 4.8073 2.1803 14.458 2.2513 19.296 0.041 4.8379-2.2107 4.8533-6.6993 4.8511-12.589-0-5.8893-0.022-13.176-0.6051-17.942-0.5832-4.7658-1.7305-7.0098-3.9736-8.4728-2.243-1.4631-5.5822-2.1439-9.4566-2.2563-3.8743-0.1124-8.2834 0.3439-11.611 1.9089-3.3276 1.5651-5.6767 4.3626-5.0528 5.5793 0.6239 1.2168 3.9885 1.1017 6.4135 2.8509 2.4251 1.7493 3.3471 5.2886 3.1918 7.6211s-1.6005 5.0535-3.0376 6.5106-3.0783 2.0481-4.7189 2.6388l-0.018 3.3475z" fill="#e5d9c4"/>
  <g fill="#faf3e1">
   <rect transform="matrix(.97209 0 0 1.1595 116.14 -174.77)" x="4152.7" y="1097.2" width="17.507" height="28.434" ry="6.5119" filter="url(#filter8843)"/>
   <rect transform="matrix(.69689 0 0 .16522 1260.9 959.91)" x="4151.3" y="1131.2" width="17.507" height="28.434" ry="6.5119" filter="url(#filter9267)"/>
   <rect transform="matrix(1.3064 0 0 .24775 -1273.9 876.17)" x="4151.3" y="1131.2" width="17.507" height="28.434" ry="6.5119" filter="url(#filter9263)"/>
  </g>
 </g>
 <path d="m181.13 115.83c0.0993-2.5684 0.29803-7.7061 0.62358-11.194 0.32556-3.4882 0.78133-5.3398 1.7612-6.2201s2.4843-0.79511 3.4363-0.15161c0.95201 0.64351 1.3466 1.8271 1.4179 5.1907 0.0714 3.3636-0.18538 8.9553-0.58284 12.177-0.39746 3.2214-0.93676 4.1013-1.9582 4.7398-1.0214 0.63844-2.5258 1.0358-3.4588 0.63792-0.93294-0.3979-1.3098-1.6445-1.4374-2.2696-0.12755-0.62517-0.014-0.65357 0.0424-0.6104 0.0564 0.0432 0.0564 0.1567 0.0564 0.21297 0 0.0563 0 0.0563 0.0993-2.5121z" fill="#d9cdb7"/>
 <g transform="translate(-47.374 6.9011)">
  <path d="m202.29 155.98c3.2047 4.6898 6.4101 9.3806 10.512 9.2653 4.1019-0.11529 9.1013-5.0343 30.058-7.2053 20.957-2.171 57.867-1.5938 92.124-3.6482s65.857-6.7402 91.71-10.794c25.853-4.0534 46.066-7.4925 56.366-9.1758 10.3-1.6834 10.633-1.6358 12.65-0.53014s5.6651 3.2612 8.7321 3.2884c3.0669 0.0272 5.554-2.073 7.935-5.7031 2.381-3.6301 4.638-8.7497 5.2185-15.658 0.5805-6.9085-0.52488-15.586-2.3485-21.748-1.8236-6.1626-4.3659-9.8103-6.9082-12.712s-5.0846-5.0573-8.1802-5.0302c-3.0955 0.02711-6.7432 2.2379-9.3687 4.1448-2.6255 1.9069-4.2283 3.5097-5.3022 4.319-1.074 0.80928-1.6178 0.82498-11.856 0.50197-10.238-0.323-30.326-0.98997-61.143 0.66024s-72.44 5.615-103 8.9414c-30.565 3.3265-50.069 6.0145-60.445 7.6678-10.376 1.6533-11.622 2.2719-12.986 3.3875-1.3638 1.1156-2.8446 2.7279-4.8626 3.3959s-4.5741 0.39167-6.4713-0.10274c-1.8971-0.49441-3.1352-1.2074-5.5129-2.6191-2.3777-1.4117-5.895-3.5221-8.8657-3.7765s-5.3937 1.3479-7.2894 3.4195c-1.8957 2.0716-3.2635 4.6118-4.0647 6.4489-0.80115 1.837-1.0356 2.9704-1.4973 7.1275-0.46164 4.1571-1.1505 11.337-0.818 16.809 0.33246 5.4717 1.6852 9.2327 3.0384 12.995 0 0 2.5794 6.3312 2.5794 6.3312z" fill="#454242"/>
  <ellipse transform="matrix(.99849 -.054936 .088409 .99608 0 0)" cx="195.64" cy="145.62" rx="11.688" ry="28.146" fill="#151814"/>
  <g fill="none">
   <path d="m239.12 107.66c4.991 5.9573 9.8042 11.703 10.486 19.826s-2.8556 18.519-6.3926 28.915" filter="url(#filter5317)" stroke="#000" stroke-width="2.1354"/>
   <path d="m215.19 104.82c4.5958 9.1362 9.1753 18.24 9.8934 27.912 0.71812 9.6721-2.4322 19.897-5.5824 30.121" filter="url(#filter5177)" stroke="#6a6a68" stroke-width="1px"/>
   <g>
    <path d="m233.18 109.23c4.5532 6.952 8.9442 13.657 9.4891 21.917 0.54494 8.2601-2.8359 17.953-6.2166 27.645" filter="url(#filter5133)" stroke="#6a6a68" stroke-width="2.1354"/>
    <path d="m224.75 110.47c4.7834 6.7531 9.3965 13.266 10.279 21.326s-2.0496 17.549-4.9814 27.038" filter="url(#filter4324)" stroke="#000" stroke-width="2.1354"/>
    <path d="m252.03 132.81c40.016-2.9294 80.031-5.8586 116.21-9.396s68.506-7.6825 100.84-11.828" filter="url(#filter5265)" stroke="#e2e3de"/>
   </g>
   <g stroke="#000">
    <path d="m251.55 141.36c31.615-2.2108 63.229-4.4216 87.99-6.5219 24.761-2.1003 42.668-4.09 63.673-6.9473 21.005-2.8574 45.539-6.649 69.857-10.407" filter="url(#filter5001)" stroke-width="4.7"/>
    <path d="m249.29 123.18c34.697-4.0885 69.419-8.18 100.43-11.054 31.007-2.874 58.309-4.5321 77.985-5.4706s31.946-1.1616 44.104-1.3827" filter="url(#filter5005)" stroke-width="3.5"/>
    <path d="m249.03 150.54c26.028-0.70134 52.213-1.407 76.952-2.6967s48.109-3.1656 66.829-5.3542c18.72-2.1886 32.789-4.6898 46.781-7.0347 13.991-2.3449 27.904-4.5334 41.816-6.7219" filter="url(#filter4997)" stroke-width="2.6"/>
   </g>
  </g>
 </g>
 <g transform="translate(1196.7 232.31)">
  <ellipse transform="matrix(.9877 -.15638 -.077113 .99702 0 0)" cx="-1126.9" cy="-159.61" rx="57.934" ry="17.598" fill="#302f29" opacity=".996"/>
  <path d="m-1038.5-111.13c-1.672-0.0353-4.113 0.14539-7.8437 0.43555-9.9488 0.77375-29.07 2.3214-45.375 6.8535-16.305 4.5321-29.791 12.049-41.453 20.008-11.662 7.959-21.501 16.359-27.912 27.082-6.4115 10.723-9.3947 23.766-11.199 30.512-1.5438 5.7712-2.2236 6.9269-2.8379 7.4883 0 1e-3 0 2e-3 -0.01 4e-3a21.908 72.603 80.641 0 0-0.1641 0.14063c-0.047 0.0373-0.093 0.0769-0.1406 0.11328-0.5892 0.45324-1.231 0.98116-1.7012 1.5801a21.908 72.603 80.641 0 0-4.2461 8.9004l-0.094 0.01 4.5879 23.506v4e-3a21.908 72.603 80.641 0 0 0.096 0.49219 21.908 72.603 80.641 0 0 0 0.0137l0.1347 0.69336 0.064-8e-3a21.908 72.603 80.641 0 0 74.668 8.7285 21.908 72.603 80.641 0 0 68.33-33.387 21.908 72.603 80.641 0 0-0.1777-0.8125l-4.2031-21.527a21.908 72.603 80.641 0 0-0.074-0.875 21.908 72.603 80.641 0 0-9.6738-8.6914c-2.3458-3.3537-5.2084-7.5989-6.0117-11.701-1.0041-5.128 1.3071-9.7221 3.6348-12.938 2.3276-3.2154 4.6435-4.9972 7.5703-6.3398s6.4635-2.2458 8.4531-2.8086c1.9896-0.56277 2.4321-0.78466 3.1504-4.2109s1.7131-10.059 1.1055-16.193c-0.6077-6.1348-2.8186-11.772-4.3106-14.592-0.9325-1.7621-1.5844-2.4216-4.3711-2.4805z" fill="#e5d9c4" filter="url(#filter5327-5)" opacity=".996"/>
  <path d="m-1181.4-9.0666c0.5261 2.4814 1.0519 4.9616 3.4351 6.9506 2.3832 1.989 6.6226 3.4873 12.008 4.8899 5.3859 1.4026 11.918 2.7095 21.201 2.9125 9.2837 0.20307 21.319-0.6974 31.482-1.9067 10.163-1.2093 18.453-2.7272 26.44-4.7298 7.9865-2.0026 15.669-4.4897 21.623-6.8509 5.9546-2.3612 10.181-4.5964 14.014-7.0623 3.833-2.4659 7.272-5.1624 9.1869-7.6242s2.3057-4.6893 2.5157-6.245 0.239-2.4397 0.034-3.4068-0.6445-2.0177-1.0845-3.0695" fill="none" filter="url(#filter11991)" opacity=".18592" stroke="#000" stroke-width=".5"/>
  <g>
   <path d="m-1040.7-84.556c-5.195 1.9338-15.696 4.9183-22.605 9.3402-6.9092 4.4219-10.225 10.28-12.502 16.414-2.2764 6.1332-3.4717 12.327-3.5821 19.291-0.1104 6.9642 0.8845 14.591 1.769 19.4s1.6582 6.7982-1.6027 8.8425c-3.2608 2.0443-10.556 4.1445-16.138 5.5815-5.5822 1.437-9.451 2.2108-16.47 2.7636-7.0192 0.55276-17.189 0.88438-23.766-1.2706-6.5772-2.155-9.5617-6.7975-8.8989-13.596 0.6628-6.7986 4.9738-15.752 7.2398-20.616 2.2661-4.8636 2.4872-5.6374 1.8242-8.5664-0.663-2.9291-2.2105-8.0138-1.6581-13.21 0.5525-5.1958 3.2054-10.502 8.6221-15.863s13.596-10.778 22.219-15.199c8.6223-4.4216 17.686-7.8483 27.082-10.114 9.3961-2.266 19.123-3.3714 26.253-3.924 7.1299-0.55265 11.662-0.55265 14.038 0.44277 2.3761 0.99542 2.5972 2.9851 2.763 5.9144 0.1658 2.9293 0.2763 6.7981 0.3869 9.1747 0.1106 2.3766 0.2211 3.2609-4.974 5.1947z" fill="#c5b9a3" filter="url(#filter5838)"/>
   <path d="m-1036.9-96.942c-0.7812 1.25-2.3444 1.5627-7.6596 2.5007-5.3152 0.93798-14.382 2.5012-23.527 6.5658-9.1455 4.0646-18.368 10.63-25.872 15.007-7.5036 4.3771-13.288 6.5656-16.883 5.7065-3.5955-0.85914-5.0024-4.7672-3.9866-9.0667 1.0159-4.2995 4.455-8.9892 12.741-13.132s21.417-7.7383 31.813-9.9268c10.396-2.1885 18.056-2.9701 23.297-3.2825 5.2414-0.31233 8.0466-0.15649 9.453 1.0164s1.4064 3.3615 0.6251 4.6115z" fill="#fefff7" filter="url(#filter6154)" opacity=".83237"/>
   <path d="m-1124.7-35.823c-0.039-1.3287-0.1951-1.7195-0.2345-3.5564-0.039-1.837 0.039-5.1198 2.9705-6.7617 2.9317-1.6419 8.7157-1.6419 11.803 0.11734s3.4778 5.2765 4.2599 6.9955c0.782 1.719 1.9544 1.6408 2.423-0.1173 0.4685-1.7581 0.234-5.1972 2.8139-6.9955s7.9731-1.9546 10.747 3.0875 2.9306 15.281 2.4813 21.009c-0.4493 5.7278-1.4267 6.8555-3.8494 7.7934-2.4226 0.93784-6.2526 1.6413-8.3632 1.2511-2.1106-0.39018-2.5015-1.8752-3.322-2.4621-0.8205-0.5869-2.0711-0.27425-2.3838 0.62533-0.3128 0.89958 0.3125 2.3847-2.3058 3.6346-2.6184 1.2499-8.4806 2.2661-13.209 1.2504-4.7287-1.0156-8.3241-4.0639-8.7153-6.4875s2.4226-4.2214 3.7513-6.3702c1.3286-2.1489 1.1723-4.65 1.1332-7.0341-0.039-2.384 0.039-4.6507 2e-4 -5.9794z" fill="#fefff7" filter="url(#filter6230)" opacity=".71387"/>
   <path d="m-1039.4-75.559c-2.5011 0.70345-10.083 3.5955-14.265 10.631-4.182 7.0354-4.9636 18.212-4.2598 26.068 0.7038 7.8556 2.8923 12.389 5.0449 14.957 2.1526 2.5683 4.2685 3.1723 6.22 2.0875 1.9514-1.0849 3.7396-3.8584 4.5968-6.2705 0.8571-2.4121 0.7828-4.4632 0.3161-6.1923s-1.3264-3.1359-3.0458-4.3087c-1.7194-1.1728-4.2987-2.1108-6.2531-4.0254s-3.2832-4.8066-3.6743-8.8322 0.156-9.1843 2.4229-13.015c2.267-3.8305 6.2533-6.3317 9.5361-8.3249 3.2829-1.9932 5.8622-3.4782 3.3611-2.7748z" fill="#c6bba5" filter="url(#filter11823)"/>
  </g>
  <path d="m-1109.6 9.2991c2.2669 2.4236 7.8946 7.0352 15.554 8.0898 7.6599 1.0546 17.352-1.4465 23.762-2.8925s9.5359-1.8368 10.278-5.0018c0.7423-3.165-0.8991-9.1053-3.1266-11.685-2.2275-2.58-5.0413-1.7984-8.9543-0.48235-3.9129 1.3161-9.0621 3.2173-15.511 4.8197-6.4484 1.6024-14.264 2.9311-18.72 3.7128s-5.5497 1.0161-3.2827 3.4397z" fill="#d1c5b0" fill-opacity=".99608" filter="url(#filter12321)"/>
  <path transform="matrix(1 0 0 1.2108 0 -.46518)" d="m-1048.5-12.712c1.7133-2.543 5.4716-5.5276 7.4614-6.577s2.2109-0.16518 2.4871 2.9299c0.2763 3.0951 0.6079 8.4009-0.1106 11.827-0.7186 3.4262-2.4872 4.9737-4.1449 5.9132-1.6578 0.93955-3.2053 1.2712-4.311-0.054671-1.1056-1.3258-1.7688-4.3103-2.2663-6.8528s-0.8291-4.6426 0.8843-7.1857z" fill="#beb19c" fill-opacity=".99608" filter="url(#filter12505)"/>
  <path d="m-1178.7-14.475c-0.8292 3.2616-1.6582 6.5225 0.028 9.0096 1.6864 2.487 5.8868 4.2004 11.165 5.7202 5.2784 1.5198 11.634 2.8462 20.947 3.0395s21.583-0.74629 31.863-2.0728c10.28-1.3265 18.57-3.0399 26.557-5.1402 7.9865-2.1003 15.669-4.5874 21.623-6.9486 5.9546-2.3612 10.181-4.5964 14.092-6.9842 3.9112-2.3878 7.5066-4.928 9.4215-7.3897 1.9148-2.4616 2.1493-4.8456 1.9347-6.6627s-0.879-3.0677-1.9144-4.1818-2.4423-2.0911-3.8504-3.0689" fill="none" filter="url(#filter12067)" opacity=".6474" stroke="#000" stroke-width="1px"/>
  <path d="m-1038.5-111.13c-1.672-0.0353-4.113 0.14539-7.8437 0.43555-9.9488 0.77375-29.07 2.3214-45.375 6.8535-16.305 4.5321-29.791 12.049-41.453 20.008-11.662 7.959-21.501 16.359-27.912 27.082-6.4115 10.723-9.3947 23.766-11.199 30.512-1.5438 5.7712-2.2236 6.9269-2.8379 7.4883 0 1e-3 0 2e-3 -0.01 4e-3a21.908 72.603 80.641 0 0-0.1641 0.14063c-0.047 0.0373-0.093 0.0769-0.1406 0.11328-0.5892 0.45324-1.231 0.98116-1.7012 1.5801a21.908 72.603 80.641 0 0-4.2461 8.9004l-0.094 0.01 4.5879 23.506v4e-3a21.908 72.603 80.641 0 0 0.096 0.49219 21.908 72.603 80.641 0 0 0 0.0137l0.1347 0.69336 0.064-8e-3a21.908 72.603 80.641 0 0 74.668 8.7285 21.908 72.603 80.641 0 0 68.33-33.387 21.908 72.603 80.641 0 0-0.1777-0.8125l-4.2031-21.527a21.908 72.603 80.641 0 0-0.074-0.875 21.908 72.603 80.641 0 0-9.6738-8.6914c-2.3458-3.3537-5.2084-7.5989-6.0117-11.701-1.0041-5.128 1.3071-9.7221 3.6348-12.938 2.3276-3.2154 4.6435-4.9972 7.5703-6.3398s6.4635-2.2458 8.4531-2.8086c1.9896-0.56277 2.4321-0.78466 3.1504-4.2109s1.7131-10.059 1.1055-16.193c-0.6077-6.1348-2.8186-11.772-4.3106-14.592-0.9325-1.7621-1.5844-2.4216-4.3711-2.4805z" fill="#e5d9c4" filter="url(#filter5327-5-7)" opacity=".085"/>
 </g>
 <path d="m488.91 252.91c-2.3844 0.70893-6.9261 2.5256-9.992 4.314-3.0659 1.7884-4.6554 3.5482-3.9452 5.0813 0.71028 1.533 3.7191 2.8387 6.7562 3.4062 3.0371 0.56741 6.1027 0.3971 8.2879-0.28415 2.1852-0.68126 3.4909-1.8734 3.6414-4.0044 0.15048-2.131-0.88815-5.3046-1.5125-7.0645-0.62433-1.7599-0.85141-2.1573-3.2358-1.4484z" fill="#cecfc7" filter="url(#filter13422)" opacity=".41503"/>
 <g transform="translate(-43.354 -89.859)">
  <g>
   <path d="m219.21 284.93c-0.18081 6.2175-0.0841 11.98 2.9703 16.555 3.0544 4.5745 9.0651 7.9608 12.536 9.5689s4.4021 1.4389 4.8251 0.93146 0.33831-1.3539-1.8872-3.6595c-2.2256-2.3056-6.5926-6.0698-8.6528-10.907-2.0602-4.8369-1.8123-10.746-2.8763-16.266s-3.4404-10.652-4.8581-9.8824c-1.4177 0.76996-1.8761 7.4422-2.0569 13.66z" fill="#f0ecd9" filter="url(#filter13598)"/>
   <path d="m232.65 281.08c1.3055-2.0718 3.2357-5.8187 4.513-9.7357 1.2774-3.917 1.9018-8.0044 2.2708-10.219 0.36897-2.2142 0.48251-2.5548 1.7031-4.9677 1.2206-2.4129 3.5481-6.8977 6.3584-11.07s6.1028-8.0331 7.9768-9.9634c1.874-1.9302 2.3281-1.9302 4.3435-1.8734 2.0154 0.0568 5.5919 0.17032 7.635-1.3905s2.5541-4.7967 2.0011-7.2813c-0.55295-2.4846-2.1142-4.1573-4.4135-4.7824-2.2993-0.62505-5.3081-0.1709-7.9199 1.0213s-4.8258 3.1224-8.163 6.6282c-3.3372 3.5058-7.8467 8.6432-11.31 13.781-3.4631 5.138-5.9042 10.304-7.4084 13.085-1.5042 2.7815-2.0719 3.1789-2.923 3.1508-0.85106-0.0281-1.9864-0.48223-3.0089-0.28379-1.0225 0.19845-1.9308 1.05-2.0721 1.7033s0.48309 1.1074 1.2208 2.3566c0.73771 1.2492 1.5892 3.2929 1.8442 6.2189 0.25494 2.9261-0.0852 6.7246-0.28389 9.4496-0.19867 2.725-0.25544 4.3713 0.59672 5.3645 0.85216 0.99311 2.612 1.3337 3.8322 1.3051 1.2202-0.0286 1.9014-0.42598 3.2068-2.4978z" fill="#d9cdb7"/>
   <path d="m230.89 276.06c0.25608 0.99317 1.2779 1.0499 2.4127-0.96516 1.1348-2.0151 2.3837-6.1025 3.2069-9.4519 0.8232-3.3494 1.2206-5.9608 2.9237-9.4241 1.7031-3.4634 4.7119-7.7778 7.4086-11.354s5.081-6.4151 6.9544-8.771c1.8734-2.356 3.2359-4.2293 3.9172-6.1024s0.68131-3.7464-0.36872-4.2296c-1.05-0.48314-3.1505 0.42516-5.6977 2.3936-2.5472 1.9684-5.5405 4.9966-8.5211 9.0276s-5.948 9.0639-7.744 12.432-2.4205 5.0713-3.2434 6.178c-0.82288 1.1066-1.8447 1.6176-2.1002 2.6402-0.25547 1.0226 0.25546 2.5554 0.65271 4.7694s0.68109 5.1093 0.5674 7.5218c-0.11368 2.4126-0.62461 4.3427-0.36852 5.3359z" fill="#aea38b" filter="url(#filter13814)" opacity=".17647"/>
  </g>
  <path d="m223.62 258.48c1.0192 1.5139 2.0376 3.0266 2.6265 4.98 0.58886 1.9534 0.74884 4.3474 0.75536 6.7082 7e-3 2.3608-0.14026 4.6884-0.22539 6.288-0.0851 1.5996-0.10864 2.4713-0.13211 3.3419" fill="none" filter="url(#filter14730)" opacity=".17647" stroke="#3a2c19" stroke-width="1px"/>
  <path d="m232.8 278.96c1.6461-3.8031 3.2924-7.6067 4.3408-11.501s1.4984-7.8801 2.6494-11.347c1.151-3.4668 3.0029-6.4139 5.7573-10.201 2.7545-3.7871 6.4112-8.4138 10.068-13.041" fill="none" filter="url(#filter14082)" stroke="#e8e0cf" stroke-width="1.9"/>
 </g>
 <g transform="translate(696.55 -.11495)">
  <path d="m-258.54 109.34c-1.0217-3.1502-3.0654-9.4517-4.4987-12.504-1.4333-3.0521-2.2564-2.8534-3.2357-2.6405s-2.1147 0.43998-2.1291 2.5838c-0.0144 2.1438 1.0926 6.2028 2.0013 8.5018s1.6184 2.8384 2.5973 5.2229 2.2278 6.6139 3.7427 11.795c1.5148 5.1815 3.3107 11.367 4.006 14.574 0.69538 3.2068 0.298 3.4623-0.32616 3.6327-0.62417 0.17035-1.4757 0.2555-1.9162 0.4547-0.44046 0.19919-0.46886 0.51142-0.61081 3.3365s-0.39735 8.16-0.28328 11.07c0.11407 2.9095 0.59661 3.3921 1.8878 3.0224s3.3917-1.5902 4.7965-2.9524c1.4048-1.3622 2.1144-2.8666 2.4126-5.3216 0.29816-2.4551 0.18462-5.8612-0.22686-9.2106s-1.1211-6.642-2.37-11.368c-1.2489-4.7262-3.0372-10.886-3.9314-13.966-0.89431-3.0804-0.89427-3.0804-1.9159-6.2306z" fill="#d9cdb7"/>
  <path d="m-256.51 130.6c1.4455 4.9789 2.8906 9.9566 3.7737 13.73 0.88303 3.7734 1.2042 6.3425 0.88288 8.289-0.32128 1.9465-1.2847 3.2712-2.5187 4.1541-1.234 0.88296-2.7393 1.3245-3.4622 0.80322s-0.66271-2.0065-0.57239-4.0338c0.0903-2.0272 0.21074-4.5963 0.27098-6.6938 0.0602-2.0974 0.0602-3.7232 0.50161-4.6178 0.44137-0.89464 1.3225-1.0568 2.2045-1.2192" fill="none" filter="url(#filter15058)" opacity=".29085" stroke="#9a8f77" stroke-width="1px"/>
  <g>
   <path d="m-256.7 143.37c-0.67281 1.9675-0.87352 5.6808-0.83321 8.0995 0.0403 2.4187 0.32132 3.5427 0.83343 4.0539 0.5121 0.51117 1.2547 0.41081 1.9368 0.0997 0.68205-0.31109 1.3042-0.83294 1.495-1.6352s-0.0501-1.8861-0.0904-3.7127 0.12027-4.3957 0.0904-6.0716c-0.0299-1.6758-0.2507-2.4586-0.93291-2.7403-0.68222-0.28167-1.8263-0.0609-2.4991 1.9066z" fill="#c2b79f" filter="url(#filter15022)" opacity=".28105"/>
   <path d="m-262.01 105.92c-0.68302 0.34108-1.0844 1.9468-0.60243 4.7571s1.8468 6.8245 3.6131 12.244 3.934 12.243 5.0377 15.254c1.1037 3.0106 1.1438 2.2077 1.184 0.74251 0.0402-1.4652 0.0803-3.5927-0.48156-7.0048-0.56185-3.4121-1.726-8.1087-2.85-12.404-1.124-4.2953-2.2078-8.1891-3.2311-10.598-1.0233-2.4087-1.9867-3.3319-2.6697-2.9909z" fill="#f0e7d6" filter="url(#filter14523)"/>
   <path d="m-265.56 94.998c-0.58209 0.14049-1.5455 0.38134-1.9473 1.4458-0.40173 1.0644-0.24116 2.9511 0.24084 4.6171 0.48201 1.666 1.2848 3.1111 2.0677 3.7728 0.78287 0.6617 1.5456 0.54127 2.0468 0.08s0.74213-1.2641 0.78242-2.4682c0.0403-1.2041-0.12028-2.8098-0.52142-4.1545s-1.0434-2.4286-1.4649-2.9511c-0.42147-0.52252-0.62218-0.48238-1.2043-0.34189z" fill="#f0e7d6" filter="url(#filter14683)"/>
  </g>
 </g>
</svg>
