<svg width="1e3mm" height="1e3mm" version="1.1" viewBox="0 0 1e3 1e3" xmlns="http://www.w3.org/2000/svg" xmlns:xlink="http://www.w3.org/1999/xlink">
 <defs>
  <filter id="filter24034" x="-.048524" y="-.071969" width="1.097" height="1.1439" color-interpolation-filters="sRGB">
   <feGaussianBlur stdDeviation="18.018007"/>
  </filter>
  <clipPath id="clipPath1799-2">
   <path d="m-927.35 607.39h-225.96l1.7426-42.985-0.5808-9.8749-4.0662-14.522-8.1322-11.037-8.7132-18.007v-118.5l1.6495-29.586 2.6697-20.332 4.7236-14.581 4.1074-8.6256 7.3933-10.474 1.0269-2.8752-1.2323-3.2859-4.364-8.1175-5.8087-14.522-4.9375-21.202-2.6139-21.202-3.1948-7.5514-6.0992-8.7131 80.161 0.29043 2.9044 10.456 5.2279 14.231 2.9043 3.7757 3.1949-11.037 5.2279-11.908-2.0331-5.5183 21.492 0.29044 0.2905-13.07-2.614-13.941-6.6801-18.298-7.5513-18.588-2.9044-4.647-5.6636-19.605-1.8878-10.891 0.4357-13.796 1.8752-17.353 2.8752-12.528 3.2859-8.8309 6.0585-10.371 5.1343-5.545 9.5496-6.5719 8.6151-3.5675 7.9871-1.3796 7.4788-0.50827 9.3666 0.65348 5.3731 1.0165 6.3896 2.6866 3.7031 1.9604 5.3731 4.284 3.1948 4.5744 2.5413 4.3566 2.5413 6.317 27.592 80.161 1.5424 6.2383 1.0268 8.2148 0.6255 22.287 2.1783 21.492 1.5974 14.667 65.784 0.7261-0.051-205.5 15.608 12.733 9.0363 11.501 5.7504 13.144 4.1074 11.911 39.431 171.28-0.25611 3.8099-0.14521 2.6139-82.049 222.62-7.5514 11.618-7.5513 14.522-3.7976 8.2039-3.4913 10.782-1.9511 10.063z" fill="#e7ac70"/>
  </clipPath>
  <filter id="filter1739-0" x="-.12066" y="-.051398" width="1.2413" height="1.1028" color-interpolation-filters="sRGB">
   <feGaussianBlur stdDeviation="12.668704"/>
  </filter>
  <clipPath id="clipPath3422-344">
   <path class="powerclip" d="m-1199 196.19h166.34v370.89h-166.34zm145.63 28.68a141.62 175.28 0 0 0-6.4043 0.17969l-1.2793 17.752-2.3203 13.061-2.3242 7.2539-4.6426 8.416-6.9649 9.2871-8.9961 11.318-5.8046 8.7051-4.3536 8.127-3.4804 9.5762-3.1914 15.961-3.1934 16.252 0.6504 13.719 2.873 34.475 2.8731 40.631 1.6426 44.734-5.7461 29.141-11.082 14.363-11.902 9.0293-11.611 3.2656a141.62 175.28 0 0 0 0.4238 0.39258h-16.967l-7.9199-10.75-5.9785-11.529-2.1348-9.3926-0.049-27.383-21.477-5.8047-13.93 79.227 17.818-4.8574v20.861h79.621v-9.6484a141.62 175.28 0 0 0 55.85 14.207 141.62 175.28 0 0 0 141.62-175.29 141.62 175.28 0 0 0-141.62-175.28zm-6.5742 0.18945a141.62 175.28 0 0 0-1.3223 0.0859 21.184 33.125 0 0 1 0.3848 3.668zm-10.475 35.043a21.184 33.125 0 0 1-0.027 0.0312 64.845 60.331 0 0 1-0.022 0.0937z" fill="#e2301f"/>
  </clipPath>
  <filter id="filter3368-2" x="-.19364" y="-.068786" width="1.3873" height="1.1376" color-interpolation-filters="sRGB">
   <feGaussianBlur stdDeviation="9.0925881"/>
  </filter>
  <clipPath id="clipPath24637">
   <path d="m515.69 254.68 3.1995 42.992 9.3085 8.0563 8.5843 11.59 5.4629 13.245 3.9013 12.004 37.459 172.6-0.24329 3.8391-0.13738 2.6336-77.944 224.34-7.1731 11.706-7.1731 14.633-3.6079 8.2671-3.3164 10.865-1.8532 10.14 1.051 86.636h-10.714l19.8 15.053 135.7 105.89 249.56-218.4 43.672-517.88z" display="none" fill="#986d4a"/>
   <path class="powerclip" d="m348.55 272.23h275.76v626.56h-275.76zm167.14-17.553 3.1995 42.992 9.3085 8.0563 8.5843 11.59 5.4629 13.245 3.9013 12.004 37.459 172.6-0.24329 3.8391-0.13738 2.6336-77.944 224.34-7.1731 11.706-7.1731 14.633-3.6079 8.2671-3.3164 10.865-1.8532 10.14 1.051 86.636h-10.714l19.8 15.053 135.7 105.89 249.56-218.4 43.672-517.88z" fill="#986d4a"/>
  </clipPath>
  <filter id="filter3712-0" x="-.059518" y="-.024027" width="1.119" height="1.0481" color-interpolation-filters="sRGB">
   <feGaussianBlur stdDeviation="5.8895341"/>
  </filter>
  <clipPath id="clipPath1622-6">
   <path d="m368.63-322.41v642.8l2.4785-0.42774 7.4726-0.50976 9.3594 0.65429 5.3691 1.0156 6.3848 2.6836 3.6992 1.959 5.3692 4.2812 3.1933 4.5703 2.5391 4.3535 2.539 6.3125 27.57 80.096 1.541 6.2344 1.0254 8.207 0.625 22.27 2.1758 21.475 1.5976 14.656 65.73 0.72461-0.0508-205.33 15.596 12.723 9.0293 11.492 5.7461 13.133 4.1035 11.902 39.4 171.14-0.2559 3.8086-0.1464 2.6113-81.982 222.44-7.5449 11.609-7.5449 14.51-3.7949 8.1973-3.4883 10.773-1.9492 10.055 1.1054 85.896h-116.89v0.93554h544.76v-1207.3z" display="none" fill="#703c27"/>
   <path class="powerclip" d="m370.58 307.37h146.93v265.54h-146.93zm-1.9505-629.78v642.8l2.4785-0.42774 7.4726-0.50976 9.3594 0.65429 5.3691 1.0156 6.3848 2.6836 3.6992 1.959 5.3692 4.2812 3.1933 4.5703 2.5391 4.3535 2.539 6.3125 27.57 80.096 1.541 6.2344 1.0254 8.207 0.625 22.27 2.1758 21.475 1.5976 14.656 65.73 0.72461-0.0508-205.33 15.596 12.723 9.0293 11.492 5.7461 13.133 4.1035 11.902 39.4 171.14-0.2559 3.8086-0.1464 2.6113-81.982 222.44-7.5449 11.609-7.5449 14.51-3.7949 8.1973-3.4883 10.773-1.9492 10.055 1.1054 85.896h-116.89v0.93554h544.76v-1207.3z" fill="#703c27"/>
  </clipPath>
  <filter id="filter1178-1" x="-.071285" y="-.035827" width="1.1426" height="1.0717" color-interpolation-filters="sRGB">
   <feGaussianBlur stdDeviation="3.5595233"/>
  </filter>
  <clipPath id="clipPath1749-6">
   <path d="m324.45 526.96-4.333-7.7842-6.6948-20.656-80.097-0.2902 6.0943 8.7062 3.1923 7.5453 1.3733 12.903-24.214-1.4364-0.41041-43.093 109.79-3.4885 3.72 24.668z" display="none" fill="none" stroke="#000" stroke-width="1px"/>
   <path class="powerclip" d="m219.37 483.25h118.38v70.333h-118.38zm105.09 43.702 8.416-22.926-3.72-24.668-109.79 3.4885 0.41041 43.093 24.214 1.4364-1.3733-12.903-3.1923-7.5453-6.0943-8.7062 80.097 0.2902 6.6948 20.656z" fill="none" stroke="#000" stroke-width="1px"/>
  </clipPath>
  <filter id="filter1412-8" x="-.1168" y="-.25776" width="1.2336" height="1.5155" color-interpolation-filters="sRGB">
   <feGaussianBlur stdDeviation="4.2755994"/>
  </filter>
  <filter id="filter1893-8" x="-.84963" y="-.30879" width="2.6993" height="1.6176" color-interpolation-filters="sRGB">
   <feGaussianBlur stdDeviation="8.7009706"/>
  </filter>
  <filter id="filter2233-9" x="-.85869" y="-.31208" width="2.7174" height="1.6242" color-interpolation-filters="sRGB">
   <feGaussianBlur stdDeviation="8.7937803"/>
  </filter>
  <linearGradient id="linearGradient30453" x1="927.17" x2="816.93" y1="696.03" y2="696.99" gradientTransform="translate(264.86 -1.7544)" gradientUnits="userSpaceOnUse">
   <stop stop-color="#5e5e5e" offset="0"/>
   <stop stop-color="#999" stop-opacity="0" offset="1"/>
  </linearGradient>
  <clipPath id="clipPath1799-2-8">
   <path d="m-927.35 607.39h-225.96l1.7426-42.985-0.5808-9.8749-4.0662-14.522-8.1322-11.037-8.7132-18.007v-118.5l1.6495-29.586 2.6697-20.332 4.7236-14.581 4.1074-8.6256 7.3933-10.474 1.0269-2.8752-1.2323-3.2859-4.364-8.1175-5.8087-14.522-4.9375-21.202-2.6139-21.202-3.1948-7.5514-6.0992-8.7131 80.161 0.29043 2.9044 10.456 5.2279 14.231 2.9043 3.7757 3.1949-11.037 5.2279-11.908-2.0331-5.5183 21.492 0.29044 0.2905-13.07-2.614-13.941-6.6801-18.298-7.5513-18.588-2.9044-4.647-5.6636-19.605-1.8878-10.891 0.4357-13.796 1.8752-17.353 2.8752-12.528 3.2859-8.8309 6.0585-10.371 5.1343-5.545 9.5496-6.5719 8.6151-3.5675 7.9871-1.3796 7.4788-0.50827 9.3666 0.65348 5.3731 1.0165 6.3896 2.6866 3.7031 1.9604 5.3731 4.284 3.1948 4.5744 2.5413 4.3566 2.5413 6.317 27.592 80.161 1.5424 6.2383 1.0268 8.2148 0.6255 22.287 2.1783 21.492 1.5974 14.667 65.784 0.7261-0.051-205.5 15.608 12.733 9.0363 11.501 5.7504 13.144 4.1074 11.911 39.431 171.28-0.25611 3.8099-0.14521 2.6139-82.049 222.62-7.5514 11.618-7.5513 14.522-3.7976 8.2039-3.4913 10.782-1.9511 10.063z" fill="#e7ac70"/>
  </clipPath>
  <filter id="filter1739-0-3" x="-.12066" y="-.051398" width="1.2413" height="1.1028" color-interpolation-filters="sRGB">
   <feGaussianBlur stdDeviation="12.668704"/>
  </filter>
  <clipPath id="clipPath3422-344-6">
   <path class="powerclip" d="m-1199 196.19h166.34v370.89h-166.34zm145.63 28.68a141.62 175.28 0 0 0-6.4043 0.17969l-1.2793 17.752-2.3203 13.061-2.3242 7.2539-4.6426 8.416-6.9649 9.2871-8.9961 11.318-5.8046 8.7051-4.3536 8.127-3.4804 9.5762-3.1914 15.961-3.1934 16.252 0.6504 13.719 2.873 34.475 2.8731 40.631 1.6426 44.734-5.7461 29.141-11.082 14.363-11.902 9.0293-11.611 3.2656a141.62 175.28 0 0 0 0.4238 0.39258h-16.967l-7.9199-10.75-5.9785-11.529-2.1348-9.3926-0.049-27.383-21.477-5.8047-13.93 79.227 17.818-4.8574v20.861h79.621v-9.6484a141.62 175.28 0 0 0 55.85 14.207 141.62 175.28 0 0 0 141.62-175.29 141.62 175.28 0 0 0-141.62-175.28zm-6.5742 0.18945a141.62 175.28 0 0 0-1.3223 0.0859 21.184 33.125 0 0 1 0.3848 3.668zm-10.475 35.043a21.184 33.125 0 0 1-0.027 0.0312 64.845 60.331 0 0 1-0.022 0.0937z" fill="#e2301f"/>
  </clipPath>
  <filter id="filter3368-2-93" x="-.19364" y="-.068786" width="1.3873" height="1.1376" color-interpolation-filters="sRGB">
   <feGaussianBlur stdDeviation="9.0925881"/>
  </filter>
  <filter id="filter3712-0-5" x="-.059518" y="-.024027" width="1.119" height="1.0481" color-interpolation-filters="sRGB">
   <feGaussianBlur stdDeviation="5.8895341"/>
  </filter>
  <clipPath id="clipPath1622-6-0">
   <path d="m368.63-322.41v642.8l2.4785-0.42774 7.4726-0.50976 9.3594 0.65429 5.3691 1.0156 6.3848 2.6836 3.6992 1.959 5.3692 4.2812 3.1933 4.5703 2.5391 4.3535 2.539 6.3125 27.57 80.096 1.541 6.2344 1.0254 8.207 0.625 22.27 2.1758 21.475 1.5976 14.656 65.73 0.72461-0.0508-205.33 15.596 12.723 9.0293 11.492 5.7461 13.133 4.1035 11.902 39.4 171.14-0.2559 3.8086-0.1464 2.6113-81.982 222.44-7.5449 11.609-7.5449 14.51-3.7949 8.1973-3.4883 10.773-1.9492 10.055 1.1054 85.896h-116.89v0.93554h544.76v-1207.3z" display="none" fill="#703c27"/>
   <path class="powerclip" d="m370.58 307.37h146.93v265.54h-146.93zm-1.9505-629.78v642.8l2.4785-0.42774 7.4726-0.50976 9.3594 0.65429 5.3691 1.0156 6.3848 2.6836 3.6992 1.959 5.3692 4.2812 3.1933 4.5703 2.5391 4.3535 2.539 6.3125 27.57 80.096 1.541 6.2344 1.0254 8.207 0.625 22.27 2.1758 21.475 1.5976 14.656 65.73 0.72461-0.0508-205.33 15.596 12.723 9.0293 11.492 5.7461 13.133 4.1035 11.902 39.4 171.14-0.2559 3.8086-0.1464 2.6113-81.982 222.44-7.5449 11.609-7.5449 14.51-3.7949 8.1973-3.4883 10.773-1.9492 10.055 1.1054 85.896h-116.89v0.93554h544.76v-1207.3z" fill="#703c27"/>
  </clipPath>
  <filter id="filter1178-1-6" x="-.071285" y="-.035827" width="1.1426" height="1.0717" color-interpolation-filters="sRGB">
   <feGaussianBlur stdDeviation="3.5595233"/>
  </filter>
  <clipPath id="clipPath1749-6-4">
   <path d="m324.45 526.96-4.333-7.7842-6.6948-20.656-80.097-0.2902 6.0943 8.7062 3.1923 7.5453 1.3733 12.903-24.214-1.4364-0.41041-43.093 109.79-3.4885 3.72 24.668z" display="none" fill="none" stroke="#000" stroke-width="1px"/>
   <path class="powerclip" d="m219.37 483.25h118.38v70.333h-118.38zm105.09 43.702 8.416-22.926-3.72-24.668-109.79 3.4885 0.41041 43.093 24.214 1.4364-1.3733-12.903-3.1923-7.5453-6.0943-8.7062 80.097 0.2902 6.6948 20.656z" fill="none" stroke="#000" stroke-width="1px"/>
  </clipPath>
  <filter id="filter1412-8-8" x="-.1168" y="-.25776" width="1.2336" height="1.5155" color-interpolation-filters="sRGB">
   <feGaussianBlur stdDeviation="4.2755994"/>
  </filter>
  <filter id="filter1893-8-1" x="-.84963" y="-.30879" width="2.6993" height="1.6176" color-interpolation-filters="sRGB">
   <feGaussianBlur stdDeviation="8.7009706"/>
  </filter>
  <filter id="filter2233-9-3" x="-.85869" y="-.31208" width="2.7174" height="1.6242" color-interpolation-filters="sRGB">
   <feGaussianBlur stdDeviation="8.7937803"/>
  </filter>
  <clipPath id="clipath_lpe_path-effect30619">
   <path d="m515.69 254.68 3.1995 42.992 9.3085 8.0563 8.5843 11.59 5.4629 13.245 3.9013 12.004 37.459 172.6-0.24329 3.8391-0.13738 2.6336-77.944 224.34-7.1731 11.706-7.1731 14.633-3.6079 8.2671-3.3164 10.865-1.8532 10.14 1.051 86.636h-10.714l19.8 15.053 135.7 105.89 249.56-218.4 43.672-517.88z" display="none" fill="#986d4a"/>
   <path class="powerclip" d="m348.55 272.23h275.76v626.56h-275.76zm167.14-17.553 3.1995 42.992 9.3085 8.0563 8.5843 11.59 5.4629 13.245 3.9013 12.004 37.459 172.6-0.24329 3.8391-0.13738 2.6336-77.944 224.34-7.1731 11.706-7.1731 14.633-3.6079 8.2671-3.3164 10.865-1.8532 10.14 1.051 86.636h-10.714l19.8 15.053 135.7 105.89 249.56-218.4 43.672-517.88z" fill="#986d4a"/>
  </clipPath>
  <filter id="filter32202" x="-.080519" y="-.030852" width="1.161" height="1.0617" color-interpolation-filters="sRGB">
   <feGaussianBlur stdDeviation="6.7608262"/>
  </filter>
 </defs>
 <g transform="matrix(1 0 0 .93109 -12.484 -45.461)" filter="url(#filter24034)" opacity=".38235">
  <rect x="77.23" y="70.045" width="891.17" height="600.62"/>
  <g transform="matrix(2.9958 0 0 2.8531 77.368 70.004)" opacity=".4085" stroke="#000" stroke-width=".4">
   <path d="M 89.8,0 242.5,210.5 M 89,0 241.7,210.5 M 88,0 240.7,210.5 M 87.2,0 239.9,210.5 M 86.2,0 239,210.5 M 95.6,0 248.4,210.5 M 94.7,0 247.5,210.5 M 93.9,0 246.6,210.5 M 93,0 245.7,210.5 M 101.6,0 254.4,210.5 M 100.7,0 253.5,210.5 M 99.9,0 252.6,210.5 M 99,0 251.7,210.5 M 107.5,0 260.3,210.5 M 106.6,0 259.4,210.5 M 105.8,0 258.5,210.5 M 104.9,0 257.6,210.5 M 113,0 265.7,210.5 M 112,0 264.8,210.5 M 111.2,0 264,210.5 M 110.3,0 263.1,210.5 M 118.3,0 271,210.5 M 117.4,0 270,210.5 M 116.5,0 269.3,210.5 M 115.6,0 268.4,210.5 M 123.6,0 276.4,210.5 M 122.7,0 275.5,210.5 M 121.9,0 274.6,210.5 M 121,0 273.7,210.5 M 130,0 282.7,210.5 M 129,0 281.7,210.5 M 128.2,0 280.9,210.5 M 127.3,0 280,210.5 M 135.5,0 288.2,210.5 M 134.6,0 287.3,210.5 M 133.8,0 286.5,210.5 M 132.8,0 285.6,210.5 M 140.8,0 293.5,210.5 M 139.9,0 292.6,210.5 M 139,0 291.8,210.5 M 138.1,0 291,210.5 M 19.1,0 171.8,210.5 M 18.2,0 170.9,210.5 M 17.3,0 170.1,210.5 M 16.4,0 169.2,210.5 M 15.5,0 168.3,210.5 M 25,0 177.7,210.5 M 24,0 176.8,210.5 M 23.2,0 175.9,210.5 M 22.3,0 175,210.5 M 31,0 183.7,210.5 M 30,0 182.8,210.5 M 29.2,0 181.9,210.5 M 28.3,0 181,210.5 M 36.9,0 189.6,210.5 M 36,0 188.7,210.5 M 35.1,0 188,210.5 M 34.2,0 186.9,210.5 M 42.3,0 195,210.5 M 41.4,0 194,210.5 M 40.5,0 193.3,210.5 M 39.6,0 192.4,210.5 M 47.6,0 200.3,210.5 M 46.7,0 199.4,210.5 M 45.8,0 198.6,210.5 M 45,0 197.7,210.5 M 53,0 205.7,210.5 M 52,0 204.8,210.5 M 51.2,0 203.9,210.5 M 50.3,0 203,210.5 M 59.2,0 212,210.5 M 58.3,0 211.1,210.5 M 57.5,0 210.2,210.5 M 56.6,0 209.3,210.5 M 64.8,0 217.6,210.5 M 63.9,0 216.6,210.5 M 63,0 215.8,210.5 M 62.1,0 215,210.5 M 70,0 222.8,210.5 M 69.2,0 221.9,210.5 M 68.3,0 221.1,210.5 M 67.4,0 220.2,210.5 M 159.8,0 297.3,189.5 M 159,0 297.3,190.7 M 158,0 297.3,192 M 157.2,0 297.3,193.1 M 156.3,0 297.3,194.4 M 165.7,0 297.3,181.4 M 164.8,0 297.3,182.7 M 164,0 297.3,183.8 M 163,0 297.3,185 M 171.7,0 297.3,173.2 M 170.8,0 297.3,174.4 M 170,0 297.3,175.6 M 169,0 297.3,176.8 M 177.6,0 297.3,165 M 176.7,0 297.3,166.3 M 175.9,0 297.3,167.4 M 175,0 297.3,168.7 M 183,0 297.3,157.5 M 182.1,0 297.3,158.7 M 181.3,0 297.3,159.9 M 180.4,0 297.4,161.2 M 188.3,0 297.3,150.2 M 187.4,0 297.4,151.5 M 186.6,0 297.3,152.6 M 185.7,0 297.3,153.9 M 193.7,0 297.3,142.8 M 192.8,0 297.3,144 M 192,0 297.3,145.2 M 191,0 297.3,146.5 M 200,0 297.3,134.2 M 199,0 297.3,135.4 M 198.2,0 297.3,136.6 M 197.3,0 297.3,137.8 M 205.6,0 297.3,126.5 M 204.6,0 297.3,127.7 M 203.8,0 297.3,128.9 M 202.9,0 297.3,130.1 M 210.8,0 297.3,119.2 M 210,0 297.3,120.4 M 209,0 297.3,121.6 M 208.2,0 297.3,122.9 M 228.2,0 297.3,95.2 m -70,-95.2 70,96.4 M 226.4,0 l 71,97.7 M 225.6,0 297.3,98.9 M 224.7,0 297.3,100.1 M 234,0 297.3,87.2 M 233.1,0 297.3,88.4 m -65,-88.4 65,89.6 M 231.4,0 l 66,90.8 M 240,0 297.3,79 M 239.1,0 297.3,80.2 m -59,-80.2 59,81.3 M 237.4,0 l 60,82.6 M 246,0 297.3,70.8 M 245,0 297.3,72 M 244.2,0 297.3,73.2 m -54,-73.2 54,74.4 M 251.4,0 l 46,63.3 M 250.5,0 297.3,64.5 M 249.7,0 297.3,65.7 M 248.8,0 297.3,67 M 256.7,0 297.3,56 M 255.8,0 297.3,57.2 M 255,0 297.3,58.4 M 254,0 297.3,59.6 M 262,0 297.3,48.6 M 261.1,0 297.3,49.8 m -37,-49.8 37,51 m -37.9,-51 38,52.2 M 268.3,0 l 29,40 m -29.9,-40 30,41.2 M 266.6,0 297.3,42.3 M 265.7,0 297.3,43.6 M 274,0 297.3,32.2 M 273,0 297.3,33.5 M 272.2,0 297.3,34.6 m -26,-34.6 26,35.9 M 279.2,0 297.3,25 m -19,-25 19,26.2 M 277.5,0 297.3,27.4 M 276.5,0 297.3,28.6 M 0,75 98.3,210.5 M 0,76.3 97.4,210.5 M 0,77.5 96.5,210.5 M 0,78.7 95.7,210.5 M 0,80 94.8,210.5 M 0,67 104.2,210.5 M 0,68.3 103.2,210.5 M 0,69.4 102.4,210.5 M 0,70.7 101.5,210.5 M 0,58.7 110.2,210.5 M 0,60 109.2,210.5 M 0,61.1 108.4,210.5 M 0,62.4 107.5,210.5 M 0,50.6 116,210.6 M 0,51.8 115.2,210.5 M 0,53 114.3,210.5 M 0,54.2 113.4,210.5 M 0,43 121.5,210.5 M 0,44.3 120.6,210.5 M 0,45.5 119.8,210.5 M 0,46.7 119,210.5 M 0,35.8 126.8,210.5 M 0,37 126,210.5 M 0,38.2 125,210.5 M 0,39.4 124.2,210.5 M 0,28.4 132.2,210.5 M 0,29.7 131.3,210.5 M 0,30.8 130.4,210.5 M 0,32 129.5,210.5 M 0,19.7 138.4,210.5 M 0,21 137.5,210.5 M 0,22.2 136.7,210.5 M 0,23.4 135.8,210.5 M 0,12 144,210.5 M 0,13.3 143.1,210.5 M 0,14.5 142.3,210.5 M 0,15.7 141.4,210.5 M 0,4.8 149.3,210.5 M 0,6 148.4,210.5 M 0,7.2 147.6,210.5 M 0,8.4 146.7,210.5 M 0,174.4 26.2,210.5 M 0,175.7 25.3,210.5 M 0,177 24.4,210.5 M 0,178 23.6,210.5 M 0,179.3 22.7,210.5 M 0,166.4 32,210.5 M 0,167.7 31.1,210.5 M 0,168.8 30.3,210.5 M 0,170 29.4,210.5 M 0,158.1 38,210.5 M 0,159.4 37.1,210.5 m -37.1,-50 36.3,50 M 0,161.8 35.4,210.5 M 0,150 44,210.5 M 0,151.2 43,210.5 M 0,152.4 42.2,210.5 M 0,153.6 l 41.3,57 M 0,142.5 l 49.4,68 M 0,143.7 48.5,210.5 M 0,144.9 47.7,210.5 M 0,146.1 46.8,210.5 M 0,135.2 54.7,210.5 M 0,136.4 53.8,210.5 M 0,137.6 l 53,73 M 0,138.8 52,210.5 M 0,127.8 60,210.5 M 0,129 59.1,210.5 M 0,130.2 58.3,210.5 m -58.3,-79 57.4,79 M 0,119.1 66.3,210.5 M 0,120.4 65.4,210.5 m -65.4,-89 64.6,89 M 0,122.8 63.7,210.5 M 0,111.4 72,210.5 M 0,112.7 71,210.5 M 0,113.8 70.2,210.5 M 0,115.1 69.3,210.5 M 0,104.2 77.2,210.5 M 0,105.4 76.3,210.5 M 0,106.6 75.5,210.6 M 0,107.8 74.5,210.5" stroke-width=".10583"/>
  </g>
 </g>
 <g transform="matrix(1 0 0 .93109 -19.263 -62.381)" fill="#f2f2f2" stroke="#2f2f2f">
  <rect x="77.23" y="70.045" width="891.17" height="600.62" stroke-width="1.192"/>
  <g transform="matrix(2.9958 0 0 2.8531 77.368 70.004)" opacity=".4085" stroke-width=".4077">
   <path d="M 89.8,0 242.5,210.5 M 89,0 241.7,210.5 M 88,0 240.7,210.5 M 87.2,0 239.9,210.5 M 86.2,0 239,210.5 M 95.6,0 248.4,210.5 M 94.7,0 247.5,210.5 M 93.9,0 246.6,210.5 M 93,0 245.7,210.5 M 101.6,0 254.4,210.5 M 100.7,0 253.5,210.5 M 99.9,0 252.6,210.5 M 99,0 251.7,210.5 M 107.5,0 260.3,210.5 M 106.6,0 259.4,210.5 M 105.8,0 258.5,210.5 M 104.9,0 257.6,210.5 M 113,0 265.7,210.5 M 112,0 264.8,210.5 M 111.2,0 264,210.5 M 110.3,0 263.1,210.5 M 118.3,0 271,210.5 M 117.4,0 270,210.5 M 116.5,0 269.3,210.5 M 115.6,0 268.4,210.5 M 123.6,0 276.4,210.5 M 122.7,0 275.5,210.5 M 121.9,0 274.6,210.5 M 121,0 273.7,210.5 M 130,0 282.7,210.5 M 129,0 281.7,210.5 M 128.2,0 280.9,210.5 M 127.3,0 280,210.5 M 135.5,0 288.2,210.5 M 134.6,0 287.3,210.5 M 133.8,0 286.5,210.5 M 132.8,0 285.6,210.5 M 140.8,0 293.5,210.5 M 139.9,0 292.6,210.5 M 139,0 291.8,210.5 M 138.1,0 291,210.5 M 19.1,0 171.8,210.5 M 18.2,0 170.9,210.5 M 17.3,0 170.1,210.5 M 16.4,0 169.2,210.5 M 15.5,0 168.3,210.5 M 25,0 177.7,210.5 M 24,0 176.8,210.5 M 23.2,0 175.9,210.5 M 22.3,0 175,210.5 M 31,0 183.7,210.5 M 30,0 182.8,210.5 M 29.2,0 181.9,210.5 M 28.3,0 181,210.5 M 36.9,0 189.6,210.5 M 36,0 188.7,210.5 M 35.1,0 188,210.5 M 34.2,0 186.9,210.5 M 42.3,0 195,210.5 M 41.4,0 194,210.5 M 40.5,0 193.3,210.5 M 39.6,0 192.4,210.5 M 47.6,0 200.3,210.5 M 46.7,0 199.4,210.5 M 45.8,0 198.6,210.5 M 45,0 197.7,210.5 M 53,0 205.7,210.5 M 52,0 204.8,210.5 M 51.2,0 203.9,210.5 M 50.3,0 203,210.5 M 59.2,0 212,210.5 M 58.3,0 211.1,210.5 M 57.5,0 210.2,210.5 M 56.6,0 209.3,210.5 M 64.8,0 217.6,210.5 M 63.9,0 216.6,210.5 M 63,0 215.8,210.5 M 62.1,0 215,210.5 M 70,0 222.8,210.5 M 69.2,0 221.9,210.5 M 68.3,0 221.1,210.5 M 67.4,0 220.2,210.5 M 159.8,0 297.3,189.5 M 159,0 297.3,190.7 M 158,0 297.3,192 M 157.2,0 297.3,193.1 M 156.3,0 297.3,194.4 M 165.7,0 297.3,181.4 M 164.8,0 297.3,182.7 M 164,0 297.3,183.8 M 163,0 297.3,185 M 171.7,0 297.3,173.2 M 170.8,0 297.3,174.4 M 170,0 297.3,175.6 M 169,0 297.3,176.8 M 177.6,0 297.3,165 M 176.7,0 297.3,166.3 M 175.9,0 297.3,167.4 M 175,0 297.3,168.7 M 183,0 297.3,157.5 M 182.1,0 297.3,158.7 M 181.3,0 297.3,159.9 M 180.4,0 297.4,161.2 M 188.3,0 297.3,150.2 M 187.4,0 297.4,151.5 M 186.6,0 297.3,152.6 M 185.7,0 297.3,153.9 M 193.7,0 297.3,142.8 M 192.8,0 297.3,144 M 192,0 297.3,145.2 M 191,0 297.3,146.5 M 200,0 297.3,134.2 M 199,0 297.3,135.4 M 198.2,0 297.3,136.6 M 197.3,0 297.3,137.8 M 205.6,0 297.3,126.5 M 204.6,0 297.3,127.7 M 203.8,0 297.3,128.9 M 202.9,0 297.3,130.1 M 210.8,0 297.3,119.2 M 210,0 297.3,120.4 M 209,0 297.3,121.6 M 208.2,0 297.3,122.9 M 228.2,0 297.3,95.2 m -70,-95.2 70,96.4 M 226.4,0 l 71,97.7 M 225.6,0 297.3,98.9 M 224.7,0 297.3,100.1 M 234,0 297.3,87.2 M 233.1,0 297.3,88.4 m -65,-88.4 65,89.6 M 231.4,0 l 66,90.8 M 240,0 297.3,79 M 239.1,0 297.3,80.2 m -59,-80.2 59,81.3 M 237.4,0 l 60,82.6 M 246,0 297.3,70.8 M 245,0 297.3,72 M 244.2,0 297.3,73.2 m -54,-73.2 54,74.4 M 251.4,0 l 46,63.3 M 250.5,0 297.3,64.5 M 249.7,0 297.3,65.7 M 248.8,0 297.3,67 M 256.7,0 297.3,56 M 255.8,0 297.3,57.2 M 255,0 297.3,58.4 M 254,0 297.3,59.6 M 262,0 297.3,48.6 M 261.1,0 297.3,49.8 m -37,-49.8 37,51 m -37.9,-51 38,52.2 M 268.3,0 l 29,40 m -29.9,-40 30,41.2 M 266.6,0 297.3,42.3 M 265.7,0 297.3,43.6 M 274,0 297.3,32.2 M 273,0 297.3,33.5 M 272.2,0 297.3,34.6 m -26,-34.6 26,35.9 M 279.2,0 297.3,25 m -19,-25 19,26.2 M 277.5,0 297.3,27.4 M 276.5,0 297.3,28.6 M 0,75 98.3,210.5 M 0,76.3 97.4,210.5 M 0,77.5 96.5,210.5 M 0,78.7 95.7,210.5 M 0,80 94.8,210.5 M 0,67 104.2,210.5 M 0,68.3 103.2,210.5 M 0,69.4 102.4,210.5 M 0,70.7 101.5,210.5 M 0,58.7 110.2,210.5 M 0,60 109.2,210.5 M 0,61.1 108.4,210.5 M 0,62.4 107.5,210.5 M 0,50.6 116,210.6 M 0,51.8 115.2,210.5 M 0,53 114.3,210.5 M 0,54.2 113.4,210.5 M 0,43 121.5,210.5 M 0,44.3 120.6,210.5 M 0,45.5 119.8,210.5 M 0,46.7 119,210.5 M 0,35.8 126.8,210.5 M 0,37 126,210.5 M 0,38.2 125,210.5 M 0,39.4 124.2,210.5 M 0,28.4 132.2,210.5 M 0,29.7 131.3,210.5 M 0,30.8 130.4,210.5 M 0,32 129.5,210.5 M 0,19.7 138.4,210.5 M 0,21 137.5,210.5 M 0,22.2 136.7,210.5 M 0,23.4 135.8,210.5 M 0,12 144,210.5 M 0,13.3 143.1,210.5 M 0,14.5 142.3,210.5 M 0,15.7 141.4,210.5 M 0,4.8 149.3,210.5 M 0,6 148.4,210.5 M 0,7.2 147.6,210.5 M 0,8.4 146.7,210.5 M 0,174.4 26.2,210.5 M 0,175.7 25.3,210.5 M 0,177 24.4,210.5 M 0,178 23.6,210.5 M 0,179.3 22.7,210.5 M 0,166.4 32,210.5 M 0,167.7 31.1,210.5 M 0,168.8 30.3,210.5 M 0,170 29.4,210.5 M 0,158.1 38,210.5 M 0,159.4 37.1,210.5 m -37.1,-50 36.3,50 M 0,161.8 35.4,210.5 M 0,150 44,210.5 M 0,151.2 43,210.5 M 0,152.4 42.2,210.5 M 0,153.6 l 41.3,57 M 0,142.5 l 49.4,68 M 0,143.7 48.5,210.5 M 0,144.9 47.7,210.5 M 0,146.1 46.8,210.5 M 0,135.2 54.7,210.5 M 0,136.4 53.8,210.5 M 0,137.6 l 53,73 M 0,138.8 52,210.5 M 0,127.8 60,210.5 M 0,129 59.1,210.5 M 0,130.2 58.3,210.5 m -58.3,-79 57.4,79 M 0,119.1 66.3,210.5 M 0,120.4 65.4,210.5 m -65.4,-89 64.6,89 M 0,122.8 63.7,210.5 M 0,111.4 72,210.5 M 0,112.7 71,210.5 M 0,113.8 70.2,210.5 M 0,115.1 69.3,210.5 M 0,104.2 77.2,210.5 M 0,105.4 76.3,210.5 M 0,106.6 75.5,210.6 M 0,107.8 74.5,210.5" fill="#f2f2f2" stroke="#2f2f2f" stroke-width=".4077"/>
  </g>
 </g>
 <g transform="translate(-296.1 191.15)">
  <g transform="translate(-216.31 35.279)" fill="#030001" filter="url(#filter32202)" opacity=".39869">
   <path d="m1457.8 491.94h-92.753l0.7153-17.644-0.2385-4.0535-1.6691-5.9609-3.3381-4.5304-3.5766-7.3918v-48.64l0.677-12.145 1.0959-8.3457 1.9389-5.9855 1.6861-3.5407 3.0348-4.2996 0.4216-1.1802-0.5059-1.3488-1.7913-3.3321-2.3844-5.9609-2.0267-8.7031-1.0729-8.7031-1.3116-3.0997-2.5035-3.5766 32.905 0.11921 1.1923 4.2918 2.1459 5.8417 1.1922 1.5499 1.3114-4.5304 2.146-4.8878-0.8346-2.2652 8.8223 0.11921 0.1196-5.3648-1.0729-5.7226-2.742-7.5109-3.0998-7.63-1.1921-1.9075-2.3249-8.0474-0.7749-4.4709 0.1788-5.6631 0.7697-7.1235 1.1802-5.1425 1.3488-3.625 2.4869-4.2572 2.1076-2.2762 3.9199-2.6976 3.5364-1.4644 3.2787-0.56632 3.0699-0.20864 3.8448 0.26825 2.2055 0.41728 2.623 1.1028 1.52 0.80474 2.2056 1.7585 1.3114 1.8777 1.0431 1.7883 1.0432 2.593 11.326 32.905 0.6332 2.5607 0.4216 3.372 0.2568 9.1484 0.894 8.8222 0.6557 6.0205 27.004 0.29805-0.022-84.356 6.4071 5.2268 3.7092 4.721 2.3605 5.3952 1.686 4.8895 16.186 70.306-0.1055 1.5639-0.059 1.073-33.68 91.381-3.0998 4.7687-3.0996 5.9609-1.5589 3.3675-1.4331 4.4257-0.8009 4.1307z" opacity="1" stroke-width=".41081"/>
   <path transform="matrix(.41048 0 0 .41048 1838.5 242.61)" d="m-926.3 608.11-0.82083-89.47 4.1041-18.058 19.7-36.116 83.724-227.37-49.371-195.59-26.118-24.958 2.4361 230.4-22.162 6.5666-8.2082 9.0291-14.775 2.4625-11.492-5.7458-5.7458-7.3874-3.2833-14.775-7.3874-87.007-35.295-96.037-10.671-7.3874-6.5666-3.2833-9.8499-2.4625-14.775 4.1041-10.671 6.5666-8.2082 9.0291-3.2833 8.2082-3.2833 18.058v17.237l7.3874 12.312 30.094 17.708 29.346 2.3375 7.9732 12.644-4.0886 13.972-22.514 4.5969-7.9779 20.974v43.504l-1.6416 40.22-9.8499 35.295-8.2083 28.729-16.416 29.55-7.3874 26.266 15.596 49.25 10.671 166.63z" clip-path="url(#clipPath1799-2-8)" filter="url(#filter1739-0-3)" opacity="1"/>
   <path transform="matrix(.41081 0 0 .41081 1838.4 242.12)" d="m-1153.1 540.26 13.133-0.82082 13.133-3.6937 11.902-9.0291 11.081-14.364 5.7457-29.139-1.6416-44.735-2.8729-40.631-2.8729-34.475-0.6518-13.719 3.1923-16.252 3.1922-15.961 3.4825-9.5768 4.3531-8.1258 5.8041-8.7062 8.9964-11.318 6.9649-9.2866 4.6433-8.416 2.3216-7.2551 2.3217-13.059 1.3459-18.686-6.1561 24.625-6.9831 17.418-14.219 18.193-12.122 13.293-12.642 15.942-8.8238 9.4395-10.671 20.11 2.4624 19.495 7.7979 15.503 11.353 14.502 1.6683 14.672s-7.8597 14.261-7.5695 15.422c0.2902 1.1608 0 13.64 0 13.64l7.2552 10.157 4.0629 12.189 0.2997 20.599-36.37 18.523-32.036-4.585 0.6509 14.459 2.052 9.0291 5.7458 11.081z" clip-path="url(#clipPath3422-344-6)" filter="url(#filter3368-2-93)" opacity="1" style="mix-blend-mode:normal"/>
   <path transform="matrix(.43211 0 0 .40734 1249.1 130.13)" d="m480.56 879.66-22.901-55.643-26.653-9.5502-63.318-4.8544 46.629-9.4249 53.905-16.685 23.13-50.266 36.293-90.714 34.482-107.46 3.1993-48.196-26.264-117.1-26.053-49.249-0.73746-29.159 34.811 14.471 15.091 53.471 43.002 135.99-6.6754 39.66-21.938 121.84-32.734 87.098-30.994 47.575 8.7075 73.104z" clip-path="url(#clipath_lpe_path-effect30619)" filter="url(#filter3712-0-5)" opacity="1" style="mix-blend-mode:normal"/>
   <g transform="matrix(.41081 0 0 .41081 1258.4 128.82)" opacity="1">
    <ellipse transform="scale(1,-1)" cx="378.52" cy="-361.12" rx="35.128" ry="36.288" stroke="#6a3824" stroke-width="2.356"/>
    <path d="m375.63 457.31 28.5-2.1518 27.727-4.62" stroke="#e7b077" stroke-width="1px"/>
    <path d="m383.81 447.69 19.213-0.84587 18.005-2.8788" stroke="#e7b077" stroke-width="1px"/>
    <path d="m503.96 559.37-18.469-6.1562-18.469-12.312-10.26-14.775-5.7458-34.885-2.0521-24.625-0.82083-27.087-2.0521-11.902-6.5666-18.879s-8.2083-23.804-9.0291-25.446c-0.82083-1.6417-9.4395-27.908-9.4395-27.908l-6.5666-16.416-7.3874-10.26-11.492-5.3354-11.492-2.4625 17.648 9.0291 9.4395 16.006 10.671 33.654 14.364 42.273 4.5145 16.006 1.2312 18.469 0.41041 18.469 1.6416 25.446 2.4625 20.11 7.3874 16.417 6.1562 6.1562 15.596 9.0291 10.671 4.5145z" clip-path="url(#clipPath1622-6-0)" filter="url(#filter1178-1-6)" opacity=".83007"/>
    <path d="m234.63 498.52 5.3354 7.3874 3.2833 12.723 6.977-10.26 12.312-7.7978 9.8499-0.82083 14.775 4.1041 8.2082 9.4395 22.573 25.035s4.925-11.081 4.5145-12.723c-0.41042-1.6416-9.0291-27.087-9.0291-27.087z" clip-path="url(#clipPath1749-6-4)" filter="url(#filter1412-8-8)"/>
    <path d="m368.96 327.42a35.55 35.55 0 0 0-24.578 33.814 35.55 35.55 0 0 0 24.578 33.812z" filter="url(#filter1893-8-1)"/>
   </g>
   <path transform="matrix(.41081 0 0 .41081 1258.4 128.82)" d="m388.68 394.98a35.55 35.55 0 0 0 24.578-33.814 35.55 35.55 0 0 0-24.578-33.812z" filter="url(#filter2233-9-3)" opacity="1"/>
   <path x="1309.0354" y="491.07355" width="159.2762" height="283.66553" d="m1328.4 491.07h139.87v283.67h-159.28v-264.26a19.405 19.405 135 0 1 19.405-19.405z" opacity="1"/>
   <path x="1309.0354" y="491.07355" width="159.2762" height="283.66553" d="m1328.4 491.07h139.87v283.67h-159.28v-264.26a19.405 19.405 135 0 1 19.405-19.405z" opacity="1"/>
   <path d="m1344.2 513.14a12.477 12.477 0 0 1-12.477 12.477 12.477 12.477 0 0 1-12.477-12.477 12.477 12.477 0 0 1 12.477-12.477 12.477 12.477 0 0 1 12.477 12.477z" opacity="1" stroke-width=".41081"/>
  </g>
  <path d="m1231.5 528.37h-92.753l0.7153-17.644-0.2385-4.0535-1.6691-5.9609-3.3381-4.5304-3.5766-7.3918v-48.64l0.677-12.145 1.0959-8.3457 1.9389-5.9855 1.6861-3.5407 3.0348-4.2996 0.4216-1.1802-0.5059-1.3488-1.7913-3.3321-2.3844-5.9609-2.0267-8.7031-1.0729-8.7031-1.3116-3.0997-2.5035-3.5766 32.905 0.11921 1.1923 4.2918 2.1459 5.8417 1.1922 1.5499 1.3114-4.5304 2.146-4.8878-0.8346-2.2652 8.8223 0.11921 0.1196-5.3648-1.0729-5.7226-2.742-7.5109-3.0998-7.63-1.1921-1.9075-2.3249-8.0474-0.7749-4.4709 0.1788-5.6631 0.7697-7.1235 1.1802-5.1425 1.3488-3.625 2.4869-4.2572 2.1076-2.2762 3.9199-2.6976 3.5364-1.4644 3.2787-0.56632 3.0699-0.20864 3.8448 0.26825 2.2055 0.41728 2.623 1.1028 1.52 0.80474 2.2056 1.7585 1.3114 1.8777 1.0431 1.7883 1.0432 2.593 11.326 32.905 0.6332 2.5607 0.4216 3.372 0.2568 9.1484 0.894 8.8222 0.6557 6.0205 27.004 0.29805-0.022-84.356 6.4071 5.2268 3.7092 4.721 2.3605 5.3952 1.686 4.8895 16.186 70.306-0.1055 1.5639-0.059 1.073-33.68 91.381-3.0998 4.7687-3.0996 5.9609-1.5589 3.3675-1.4331 4.4257-0.8009 4.1307z" fill="#e7ac70" stroke-width=".41081"/>
  <path transform="matrix(.41048 0 0 .41048 1612.1 279.05)" d="m-926.3 608.11-0.82083-89.47 4.1041-18.058 19.7-36.116 83.724-227.37-49.371-195.59-26.118-24.958 2.4361 230.4-22.162 6.5666-8.2082 9.0291-14.775 2.4625-11.492-5.7458-5.7458-7.3874-3.2833-14.775-7.3874-87.007-35.295-96.037-10.671-7.3874-6.5666-3.2833-9.8499-2.4625-14.775 4.1041-10.671 6.5666-8.2082 9.0291-3.2833 8.2082-3.2833 18.058v17.237l7.3874 12.312 30.094 17.708 29.346 2.3375 7.9732 12.644-4.0886 13.972-22.514 4.5969-7.9779 20.974v43.504l-1.6416 40.22-9.8499 35.295-8.2083 28.729-16.416 29.55-7.3874 26.266 15.596 49.25 10.671 166.63z" clip-path="url(#clipPath1799-2)" fill="#703b26" filter="url(#filter1739-0)" opacity=".76797"/>
  <path transform="matrix(.41081 0 0 .41081 1612 278.55)" d="m-1153.1 540.26 13.133-0.82082 13.133-3.6937 11.902-9.0291 11.081-14.364 5.7457-29.139-1.6416-44.735-2.8729-40.631-2.8729-34.475-0.6518-13.719 3.1923-16.252 3.1922-15.961 3.4825-9.5768 4.3531-8.1258 5.8041-8.7062 8.9964-11.318 6.9649-9.2866 4.6433-8.416 2.3216-7.2551 2.3217-13.059 1.3459-18.686-6.1561 24.625-6.9831 17.418-14.219 18.193-12.122 13.293-12.642 15.942-8.8238 9.4395-10.671 20.11 2.4624 19.495 7.7979 15.503 11.353 14.502 1.6683 14.672s-7.8597 14.261-7.5695 15.422c0.2902 1.1608 0 13.64 0 13.64l7.2552 10.157 4.0629 12.189 0.2997 20.599-36.37 18.523-32.036-4.585 0.6509 14.459 2.052 9.0291 5.7458 11.081z" clip-path="url(#clipPath3422-344)" fill="#5e301f" filter="url(#filter3368-2)" opacity=".76144" style="mix-blend-mode:normal"/>
  <path transform="matrix(.43211 0 0 .40734 1022.7 166.56)" d="m480.56 879.66-22.901-55.643-26.653-9.5502-63.318-4.8544 46.629-9.4249 53.905-16.685 23.13-50.266 36.293-90.714 34.482-107.46 3.1993-48.196-26.264-117.1-26.053-49.249-0.73746-29.159 34.811 14.471 15.091 53.471 43.002 135.99-6.6754 39.66-21.938 121.84-32.734 87.098-30.994 47.575 8.7075 73.104z" clip-path="url(#clipPath24637)" fill="#492e23" filter="url(#filter3712-0)" opacity=".67647" style="mix-blend-mode:normal"/>
  <g transform="matrix(.41081 0 0 .41081 1032 165.25)" fill="none">
   <ellipse transform="scale(1,-1)" cx="378.52" cy="-361.12" rx="35.128" ry="36.288" stroke="#6a3824" stroke-width="2.356"/>
   <path d="m375.63 457.31 28.5-2.1518 27.727-4.62" stroke="#e7b077" stroke-width="1px"/>
   <path d="m383.81 447.69 19.213-0.84587 18.005-2.8788" stroke="#e7b077" stroke-width="1px"/>
  </g>
  <g transform="matrix(.41081 0 0 .41081 1032 165.25)">
   <path d="m503.96 559.37-18.469-6.1562-18.469-12.312-10.26-14.775-5.7458-34.885-2.0521-24.625-0.82083-27.087-2.0521-11.902-6.5666-18.879s-8.2083-23.804-9.0291-25.446c-0.82083-1.6417-9.4395-27.908-9.4395-27.908l-6.5666-16.416-7.3874-10.26-11.492-5.3354-11.492-2.4625 17.648 9.0291 9.4395 16.006 10.671 33.654 14.364 42.273 4.5145 16.006 1.2312 18.469 0.41041 18.469 1.6416 25.446 2.4625 20.11 7.3874 16.417 6.1562 6.1562 15.596 9.0291 10.671 4.5145z" clip-path="url(#clipPath1622-6)" fill="#321f18" filter="url(#filter1178-1)" opacity=".83007"/>
   <path d="m234.63 498.52 5.3354 7.3874 3.2833 12.723 6.977-10.26 12.312-7.7978 9.8499-0.82083 14.775 4.1041 8.2082 9.4395 22.573 25.035s4.925-11.081 4.5145-12.723c-0.41042-1.6416-9.0291-27.087-9.0291-27.087z" clip-path="url(#clipPath1749-6)" fill="#703c27" filter="url(#filter1412-8)"/>
   <path d="m368.96 327.42a35.55 35.55 0 0 0-24.578 33.814 35.55 35.55 0 0 0 24.578 33.812z" fill="#e5ae73" filter="url(#filter1893-8)"/>
  </g>
  <path transform="matrix(.41081 0 0 .41081 1032 165.25)" d="m388.68 394.98a35.55 35.55 0 0 0 24.578-33.814 35.55 35.55 0 0 0-24.578-33.812z" fill="#22140f" fill-opacity=".7451" filter="url(#filter2233-9)"/>
  <path x="1082.683" y="527.50867" width="159.2762" height="283.66553" d="m1102.1 527.51h139.87v283.67h-159.28v-264.26a19.405 19.405 135 0 1 19.405-19.405z" fill="#999"/>
  <path x="1082.683" y="527.50867" width="159.2762" height="283.66553" d="m1102.1 527.51h139.87v283.67h-159.28v-264.26a19.405 19.405 135 0 1 19.405-19.405z" fill="url(#linearGradient30453)" opacity=".74183"/>
  <path d="m1117.8 549.57a12.477 12.477 0 0 1-12.477 12.477 12.477 12.477 0 0 1-12.477-12.477 12.477 12.477 0 0 1 12.477-12.477 12.477 12.477 0 0 1 12.477 12.477z" fill="#2f2f2f" stroke-width=".41081"/>
 </g>
</svg>
