<?xml version="1.0" encoding="UTF-8" standalone="no"?>
<svg
   xmlns:dc="http://purl.org/dc/elements/1.1/"
   xmlns:cc="http://creativecommons.org/ns#"
   xmlns:rdf="http://www.w3.org/1999/02/22-rdf-syntax-ns#"
   xmlns:svg="http://www.w3.org/2000/svg"
   xmlns="http://www.w3.org/2000/svg"
   xmlns:sodipodi="http://sodipodi.sourceforge.net/DTD/sodipodi-0.dtd"
   xmlns:inkscape="http://www.inkscape.org/namespaces/inkscape"
   width="672.32"
   height="960"
   version="1.1"
   viewBox="0 0 672.32 960"
   id="svg15816"
   sodipodi:docname="rightHand.svg"
   inkscape:version="1.0.2-2 (e86c870879, 2021-01-15)">
  <metadata
     id="metadata15820">
    <rdf:RDF>
      <cc:Work
         rdf:about="">
        <dc:format>image/svg+xml</dc:format>
        <dc:type
           rdf:resource="http://purl.org/dc/dcmitype/StillImage" />
        <dc:title></dc:title>
      </cc:Work>
    </rdf:RDF>
  </metadata>
  <sodipodi:namedview
     pagecolor="#000000"
     bordercolor="#666666"
     borderopacity="1"
     objecttolerance="10"
     gridtolerance="10"
     guidetolerance="10"
     inkscape:pageopacity="0"
     inkscape:pageshadow="2"
     inkscape:window-width="1920"
     inkscape:window-height="1017"
     id="namedview15818"
     showgrid="false"
     inkscape:zoom="0.60953248"
     inkscape:cx="548.75284"
     inkscape:cy="507.47804"
     inkscape:window-x="-8"
     inkscape:window-y="-8"
     inkscape:window-maximized="1"
     inkscape:current-layer="g15796" />
  <defs
     id="defs15778">
    <inkscape:path-effect
       effect="powerclip"
       id="path-effect24641"
       is_visible="true"
       lpeversion="1"
       inverse="true"
       flatten="false"
       hide_clip="false"
       message="Use fill-rule evenodd on &lt;b&gt;fill and stroke&lt;/b&gt; dialog if no flatten result after convert clip to paths." />
    <linearGradient
       id="linearGradient879"
       x1="829.58"
       x2="679.83"
       y1="1052.4"
       y2="1048.9"
       gradientTransform="translate(-452.46 -128.17)"
       gradientUnits="userSpaceOnUse">
      <stop
         stop-color="#5e5e5e"
         offset="0"
         id="stop15731" />
      <stop
         stop-color="#999"
         stop-opacity="0"
         offset="1"
         id="stop15733" />
    </linearGradient>
    <filter
       id="filter1739"
       x="-.12066"
       y="-.051398"
       width="1.2413"
       height="1.1028"
       color-interpolation-filters="sRGB">
      <feGaussianBlur
         stdDeviation="12.668704"
         id="feGaussianBlur15736" />
    </filter>
    <clipPath
       id="clipPath1799">
      <path
         d="m-927.35 607.39h-225.96l1.7426-42.985-0.5808-9.8749-4.0662-14.522-8.1322-11.037-8.7132-18.007v-118.5l1.6495-29.586 2.6697-20.332 4.7236-14.581 4.1074-8.6256 7.3933-10.474 1.0269-2.8752-1.2323-3.2859-4.364-8.1175-5.8087-14.522-4.9375-21.202-2.6139-21.202-3.1948-7.5514-6.0992-8.7131 80.161 0.29043 2.9044 10.456 5.2279 14.231 2.9043 3.7757 3.1949-11.037 5.2279-11.908-2.0331-5.5183 21.492 0.29044 0.2905-13.07-2.614-13.941-6.6801-18.298-7.5513-18.588-2.9044-4.647-5.6636-19.605-1.8878-10.891 0.4357-13.796 1.8752-17.353 2.8752-12.528 3.2859-8.8309 6.0585-10.371 5.1343-5.545 9.5496-6.5719 8.6151-3.5675 7.9871-1.3796 7.4788-0.50827 9.3666 0.65348 5.3731 1.0165 6.3896 2.6866 3.7031 1.9604 5.3731 4.284 3.1948 4.5744 2.5413 4.3566 2.5413 6.317 27.592 80.161 1.5424 6.2383 1.0268 8.2148 0.6255 22.287 2.1783 21.492 1.5974 14.667 65.784 0.7261-0.051-205.5 15.608 12.733 9.0363 11.501 5.7504 13.144 4.1074 11.911 39.431 171.28-0.25611 3.8099-0.14521 2.6139-82.049 222.62-7.5514 11.618-7.5513 14.522-3.7976 8.2039-3.4913 10.782-1.9511 10.063z"
         fill="#e7ac70"
         id="path15739" />
    </clipPath>
    <filter
       id="filter3368"
       x="-.19364"
       y="-.068786"
       width="1.3873"
       height="1.1376"
       color-interpolation-filters="sRGB">
      <feGaussianBlur
         stdDeviation="9.0925881"
         id="feGaussianBlur15742" />
    </filter>
    <clipPath
       id="clipPath3422">
      <path
         class="powerclip"
         d="m-1199 196.19h166.34v370.89h-166.34zm145.63 28.68a141.62 175.28 0 0 0-6.4043 0.17969l-1.2793 17.752-2.3203 13.061-2.3242 7.2539-4.6426 8.416-6.9649 9.2871-8.9961 11.318-5.8046 8.7051-4.3536 8.127-3.4804 9.5762-3.1914 15.961-3.1934 16.252 0.6504 13.719 2.873 34.475 2.8731 40.631 1.6426 44.734-5.7461 29.141-11.082 14.363-11.902 9.0293-11.611 3.2656a141.62 175.28 0 0 0 0.4238 0.39258h-16.967l-7.9199-10.75-5.9785-11.529-2.1348-9.3926-0.049-27.383-21.477-5.8047-13.93 79.227 17.818-4.8574v20.861h79.621v-9.6484a141.62 175.28 0 0 0 55.85 14.207 141.62 175.28 0 0 0 141.62-175.29 141.62 175.28 0 0 0-141.62-175.28zm-6.5742 0.18945a141.62 175.28 0 0 0-1.3223 0.0859 21.184 33.125 0 0 1 0.3848 3.668zm-10.475 35.043a21.184 33.125 0 0 1-0.027 0.0312 64.845 60.331 0 0 1-0.022 0.0937z"
         fill="#e2301f"
         id="path15745" />
    </clipPath>
    <filter
       id="filter3712"
       x="-0.059518284"
       y="-0.024026934"
       width="1.1190366"
       height="1.0480539"
       color-interpolation-filters="sRGB">
      <feGaussianBlur
         stdDeviation="5.8895341"
         id="feGaussianBlur15748" />
    </filter>
    <filter
       id="filter1178"
       x="-.071285"
       y="-.035827"
       width="1.1426"
       height="1.0717"
       color-interpolation-filters="sRGB">
      <feGaussianBlur
         stdDeviation="3.5595233"
         id="feGaussianBlur15751" />
    </filter>
    <filter
       id="filter1412"
       x="-.1168"
       y="-.25776"
       width="1.2336"
       height="1.5155"
       color-interpolation-filters="sRGB">
      <feGaussianBlur
         stdDeviation="4.2755994"
         id="feGaussianBlur15754" />
    </filter>
    <clipPath
       id="clipPath1506">
      <path
         d="m-177.79-322.41v1207.3h1091.2v-1207.3zm695.03 616.03 15.596 12.723 9.0293 11.492 5.7461 13.133 4.1035 11.902 39.4 171.14-0.2558 3.8086-0.1465 2.6113-81.982 222.44-7.545 11.609-7.5449 14.51-3.7949 8.1972-3.4883 10.774-1.9492 10.055 1.1055 85.896h-225.78l1.7402-42.951-0.5801-9.8672-4.0625-14.51-8.1269-11.027-8.7051-17.994v-118.4l1.6484-29.562 2.668-20.316 4.7187-14.57 4.1036-8.6172 7.3886-10.467 1.0254-2.873-1.2304-3.2833-4.3614-8.1113-5.8047-14.51-4.9336-21.184-2.6113-21.186-3.1914-7.5449-6.0957-8.707 80.098 0.291 2.9023 10.447 5.2227 14.219 2.9023 3.7734 3.1934-11.027 5.2226-11.898-2.0312-5.5136 21.475 0.289 0.291-13.059-2.6113-13.93-6.6758-18.283-7.5449-18.574-2.9024-4.6426-5.6582-19.588-1.8867-10.883 0.4355-13.785 1.8731-17.34 2.873-12.518 3.2832-8.8242 6.0547-10.363 5.1289-5.5391 9.543-6.5684 8.6074-3.5644 7.9805-1.377 7.4727-0.50976 9.3593 0.6543 5.3692 1.0156 6.3847 2.6836 3.6993 1.959 5.3691 4.2812 3.1934 4.5703 2.539 4.3535 2.5391 6.3125 27.57 80.096 1.541 6.2344 1.0254 8.207 0.625 22.27 2.1758 21.475 1.5976 14.656 65.73 0.7246z"
         display="none"
         fill="#703c27"
         id="path15757" />
      <path
         class="powerclip"
         d="m346.49 275.74h265.54v625.12h-265.54zm-524.28-598.15v1207.3h1091.2v-1207.3zm695.03 616.03 0.0508 205.33-65.73-0.7246-1.5976-14.656-2.1758-21.475-0.625-22.27-1.0254-8.207-1.541-6.2344-27.57-80.096-2.5391-6.3125-2.539-4.3535-3.1934-4.5703-5.3691-4.2812-3.6993-1.959-6.3847-2.6836-5.3692-1.0156-9.3593-0.6543-7.4727 0.50976-7.9805 1.377-8.6074 3.5644-9.543 6.5684-5.1289 5.5391-6.0547 10.363-3.2832 8.8242-2.873 12.518-1.8731 17.34-0.4355 13.785 1.8867 10.883 5.6582 19.588 2.9024 4.6426 7.5449 18.574 6.6758 18.283 2.6113 13.93-0.291 13.059-21.475-0.289 2.0312 5.5136-5.2226 11.898-3.1934 11.027-2.9023-3.7734-5.2227-14.219-2.9023-10.447-80.098-0.291 6.0957 8.707 3.1914 7.5449 2.6113 21.186 4.9336 21.184 5.8047 14.51 4.3614 8.1113 1.2304 3.2833-1.0254 2.873-7.3886 10.467-4.1036 8.6172-4.7187 14.57-2.668 20.316-1.6484 29.562v118.4l8.7051 17.994 8.1269 11.027 4.0625 14.51 0.5801 9.8672-1.7402 42.951h225.78l-1.1055-85.896 1.9492-10.055 3.4883-10.774 3.7949-8.1972 7.5449-14.51 7.545-11.609 81.982-222.44 0.1465-2.6113 0.2558-3.8086-39.4-171.14-4.1035-11.902-5.7461-13.133-9.0293-11.492z"
         fill="#703c27"
         id="path15759" />
    </clipPath>
    <clipPath
       id="clipPath1622">
      <path
         d="m368.63-322.41v642.8l2.4785-0.42774 7.4726-0.50976 9.3594 0.65429 5.3691 1.0156 6.3848 2.6836 3.6992 1.959 5.3692 4.2812 3.1933 4.5703 2.5391 4.3535 2.539 6.3125 27.57 80.096 1.541 6.2344 1.0254 8.207 0.625 22.27 2.1758 21.475 1.5976 14.656 65.73 0.72461-0.0508-205.33 15.596 12.723 9.0293 11.492 5.7461 13.133 4.1035 11.902 39.4 171.14-0.2559 3.8086-0.1464 2.6113-81.982 222.44-7.5449 11.609-7.5449 14.51-3.7949 8.1973-3.4883 10.773-1.9492 10.055 1.1054 85.896h-116.89v0.93554h544.76v-1207.3z"
         display="none"
         fill="#703c27"
         id="path15762" />
      <path
         class="powerclip"
         d="m370.58 307.37h146.93v265.54h-146.93zm-1.9505-629.78v642.8l2.4785-0.42774 7.4726-0.50976 9.3594 0.65429 5.3691 1.0156 6.3848 2.6836 3.6992 1.959 5.3692 4.2812 3.1933 4.5703 2.5391 4.3535 2.539 6.3125 27.57 80.096 1.541 6.2344 1.0254 8.207 0.625 22.27 2.1758 21.475 1.5976 14.656 65.73 0.72461-0.0508-205.33 15.596 12.723 9.0293 11.492 5.7461 13.133 4.1035 11.902 39.4 171.14-0.2559 3.8086-0.1464 2.6113-81.982 222.44-7.5449 11.609-7.5449 14.51-3.7949 8.1973-3.4883 10.773-1.9492 10.055 1.1054 85.896h-116.89v0.93554h544.76v-1207.3z"
         fill="#703c27"
         id="path15764" />
    </clipPath>
    <clipPath
       id="clipPath1749">
      <path
         d="m324.45 526.96-4.333-7.7842-6.6948-20.656-80.097-0.2902 6.0943 8.7062 3.1923 7.5453 1.3733 12.903-24.214-1.4364-0.41041-43.093 109.79-3.4885 3.72 24.668z"
         display="none"
         fill="none"
         stroke="#000"
         stroke-width="1px"
         id="path15767" />
      <path
         class="powerclip"
         d="m219.37 483.25h118.38v70.333h-118.38zm105.09 43.702 8.416-22.926-3.72-24.668-109.79 3.4885 0.41041 43.093 24.214 1.4364-1.3733-12.903-3.1923-7.5453-6.0943-8.7062 80.097 0.2902 6.6948 20.656z"
         fill="none"
         stroke="#000"
         stroke-width="1px"
         id="path15769" />
    </clipPath>
    <filter
       id="filter1893"
       x="-.84963"
       y="-.30879"
       width="2.6993"
       height="1.6176"
       color-interpolation-filters="sRGB">
      <feGaussianBlur
         stdDeviation="8.7009706"
         id="feGaussianBlur15772" />
    </filter>
    <filter
       id="filter2233"
       x="-.85869"
       y="-.31208"
       width="2.7174"
       height="1.6242"
       color-interpolation-filters="sRGB">
      <feGaussianBlur
         stdDeviation="8.7937803"
         id="feGaussianBlur15775" />
    </filter>
    <clipPath
       clipPathUnits="userSpaceOnUse"
       id="clipPath24637">
      <path
         id="path24639"
         style="display:none;fill:#986d4a;fill-opacity:1;stroke:none;stroke-width:0.979193px;stroke-linecap:butt;stroke-linejoin:miter;stroke-opacity:1"
         d="m 515.68869,254.67856 3.19946,42.99201 9.30851,8.05634 8.58434,11.59007 5.46294,13.24468 3.90128,12.00373 37.45877,172.59839 -0.24329,3.83907 -0.13738,2.63356 -77.94426,224.33616 -7.17309,11.70629 -7.17312,14.63337 -3.60792,8.26708 -3.31638,10.86521 -1.85316,10.14033 1.05099,86.63602 h -10.71417 l 19.79987,15.05293 135.69868,105.8923 249.56046,-218.40312 43.67183,-517.88383 z" />
      <path
         id="lpe_path-effect24641"
         style="fill:#986d4a;fill-opacity:1;stroke:none;stroke-width:0.979193px;stroke-linecap:butt;stroke-linejoin:miter;stroke-opacity:1"
         class="powerclip"
         d="M 348.55312,272.23192 H 624.31094 V 898.79488 H 348.55312 Z m 167.13557,-17.55336 3.19946,42.99201 9.30851,8.05634 8.58434,11.59007 5.46294,13.24468 3.90128,12.00373 37.45877,172.59839 -0.24329,3.83907 -0.13738,2.63356 -77.94426,224.33616 -7.17309,11.70629 -7.17312,14.63337 -3.60792,8.26708 -3.31638,10.86521 -1.85316,10.14033 1.05099,86.63602 h -10.71417 l 19.79987,15.05293 135.69868,105.8923 249.56046,-218.40312 43.67183,-517.88383 z" />
    </clipPath>
  </defs>
  <path
     d="m-1991.8-423.4h-225.78l1.7412-42.95-0.5804-9.867-4.0629-14.51-8.1257-11.028-8.7062-17.993v-118.4l1.6481-29.563 2.6676-20.315 4.7198-14.57 4.1041-8.6187 7.3874-10.466 1.0261-2.8729-1.2313-3.2833-4.3605-8.111-5.8041-14.51-4.9335-21.185-2.6118-21.185-3.1923-7.5453-6.0943-8.7062 80.097 0.2902 2.9021 10.447 5.2237 14.22 2.902 3.7727 3.1923-11.028 5.2237-11.898-2.0314-5.5139 21.475 0.29021 0.2902-13.059-2.6119-13.93-6.6747-18.283-7.5453-18.573-2.9021-4.6433-5.659-19.589-1.8863-10.883 0.4353-13.785 1.8737-17.34 2.8729-12.518 3.2833-8.8239 6.0536-10.363 5.1302-5.5406 9.542-6.5666 8.6082-3.5647 7.9807-1.3785 7.4728-0.50786 9.3591 0.65296 5.3688 1.0157 6.3845 2.6844 3.7002 1.9589 5.3688 4.2805 3.1923 4.5707 2.5393 4.3531 2.5393 6.312 27.57 80.097 1.5412 6.2333 1.026 8.2082 0.6251 22.269 2.1765 21.475 1.5961 14.655 65.732 0.72551-0.051-205.34 15.596 12.723 9.029 11.492 5.7458 13.133 4.1041 11.902 39.4 171.14-0.2559 3.8069-0.1451 2.6118-81.983 222.44-7.5453 11.608-7.5454 14.51-3.7946 8.1973-3.4885 10.773-1.9494 10.055z"
     fill="#e7ac70"
     id="path15780" />
  <g
     id="g15796">
    <path
       d="m485.52 883.91h-225.78l1.7412-42.95-0.5804-9.867-4.0629-14.51-8.1257-11.028-8.7062-17.993v-118.4l1.6481-29.563 2.6676-20.315 4.7198-14.57 4.1041-8.6187 7.3874-10.466 1.0261-2.8729-1.2313-3.2833-4.3605-8.111-5.8041-14.51-4.9335-21.185-2.6118-21.185-3.1923-7.5453-6.0943-8.7062 80.097 0.2902 2.9021 10.447 5.2237 14.22 2.902 3.7727 3.1923-11.028 5.2237-11.898-2.0314-5.5139 21.475 0.29021 0.2902-13.059-2.6119-13.93-6.6747-18.283-7.5453-18.573-2.9021-4.6433-5.659-19.589-1.8863-10.883 0.4353-13.785 1.8737-17.34 2.8729-12.518 3.2833-8.8239 6.0536-10.363 5.1302-5.5406 9.542-6.5666 8.6082-3.5647 7.9807-1.3785 7.4728-0.50786 9.3591 0.65296 5.3688 1.0157 6.3845 2.6844 3.7002 1.9589 5.3688 4.2805 3.1922 4.5707 2.5393 4.3531 2.5393 6.312 27.57 80.097 1.5412 6.2333 1.026 8.2082 0.62501 22.269 2.1765 21.475 1.5961 14.655 65.732 0.72551-0.0513-205.34 15.596 12.723 9.0291 11.492 5.7458 13.133 4.1041 11.902 39.4 171.14-0.25589 3.8069-0.1451 2.6118-81.983 222.44-7.5454 11.608-7.5453 14.51-3.7946 8.1973-3.4885 10.773-1.9495 10.055z"
       fill="#e7ac70"
       id="path15782" />
    <path
       transform="matrix(.9992 0 0 .9992 1412.1 277)"
       d="m-926.3 608.11-0.82083-89.47 4.1041-18.058 19.7-36.116 83.724-227.37-49.371-195.59-26.118-24.958 2.4361 230.4-22.162 6.5666-8.2082 9.0291-14.775 2.4625-11.492-5.7458-5.7458-7.3874-3.2833-14.775-7.3874-87.007-35.295-96.037-10.671-7.3874-6.5666-3.2833-9.8499-2.4625-14.775 4.1041-10.671 6.5666-8.2082 9.0291-3.2833 8.2082-3.2833 18.058v17.237l7.3874 12.312 30.094 17.708 29.346 2.3375 7.9732 12.644-4.0886 13.972-22.514 4.5969-7.9779 20.974v43.504l-1.6416 40.22-9.8499 35.295-8.2083 28.729-16.416 29.55-7.3874 26.266 15.596 49.25 10.671 166.63z"
       clip-path="url(#clipPath1799)"
       fill="#703b26"
       filter="url(#filter1739)"
       opacity=".76797"
       id="path15784" />
    <path
       d="m155.28 873.72h362.29v82.418h-387.71v-56.997a25.421 25.421 135 0 1 25.421-25.421z"
       fill="#999"
       id="path15786" />
    <path
       d="m155.28 873.72h362.29v82.418h-387.71v-56.997a25.421 25.421 135 0 1 25.421-25.421z"
       fill="url(#linearGradient879)"
       id="path15788" />
    <path
       d="m205.84 916.74a30.371 30.371 0 0 1-30.371 30.371 30.371 30.371 0 0 1-30.371-30.371 30.371 30.371 0 0 1 30.371-30.371 30.371 30.371 0 0 1 30.371 30.371z"
       fill="#2f2f2f"
       id="path15790" />
    <path
       transform="translate(1411.8 275.8)"
       d="m-1153.1 540.26 13.133-0.82082 13.133-3.6937 11.902-9.0291 11.081-14.364 5.7457-29.139-1.6416-44.735-2.8729-40.631-2.8729-34.475-0.6518-13.719 3.1923-16.252 3.1922-15.961 3.4825-9.5768 4.3531-8.1258 5.8041-8.7062 8.9964-11.318 6.9649-9.2866 4.6433-8.416 2.3216-7.2551 2.3217-13.059 1.3459-18.686-6.1561 24.625-6.9831 17.418-14.219 18.193-12.122 13.293-12.642 15.942-8.8238 9.4395-10.671 20.11 2.4624 19.495 7.7979 15.503 11.353 14.502 1.6683 14.672s-7.8597 14.261-7.5695 15.422c0.2902 1.1608 0 13.64 0 13.64l7.2552 10.157 4.0629 12.189 0.2997 20.599-36.37 18.523-32.036-4.585 0.6509 14.459 2.052 9.0291 5.7458 11.081z"
       clip-path="url(#clipPath3422)"
       fill="#5e301f"
       filter="url(#filter3368)"
       opacity=".76144"
       style="mix-blend-mode:normal"
       id="path15792" />
    <path
       d="m 480.56,879.66 -22.90091,-55.64273 -26.65266,-9.55015 -63.31843,-4.85442 46.62922,-9.42486 53.90496,-16.68521 23.12968,-50.26569 36.29307,-90.71383 34.48167,-107.45546 3.19932,-48.19551 -26.26399,-117.09809 -26.05292,-49.24858 -0.73746,-29.15867 34.81129,14.47063 15.091,53.4707 43.00222,135.98824 -6.67536,39.6602 -21.93757,121.84019 -32.73435,87.09785 -30.99448,47.57508 8.70753,73.10411 z"
       clip-path="url(#clipPath24637)"
       fill="#492e23"
       filter="url(#filter3712)"
       style="opacity:0.67647059;mix-blend-mode:normal;filter:url(#filter3712)"
       id="path15794"
       transform="matrix(1.0518337,0,0,0.99155398,-22.730747,3.193329)"
       sodipodi:nodetypes="cccccccccccccccccccccc"
       inkscape:path-effect="#path-effect24641"
       inkscape:original-d="m 480.56,879.66 -22.90091,-55.64273 -26.65266,-9.55015 -63.31843,-4.85442 46.62922,-9.42486 53.90496,-16.68521 23.12968,-50.26569 36.29307,-90.71383 34.48167,-107.45546 3.19932,-48.19551 -26.26399,-117.09809 -26.05292,-49.24858 -0.73746,-29.15867 34.81129,14.47063 15.091,53.4707 43.00222,135.98824 -6.67536,39.6602 -21.93757,121.84019 -32.73435,87.09785 -30.99448,47.57508 8.70753,73.10411 z" />
  </g>
  <g
     fill="none"
     id="g15804">
    <ellipse
       transform="scale(1,-1)"
       cx="378.52"
       cy="-361.12"
       rx="35.128"
       ry="36.288"
       stroke="#6a3824"
       stroke-width="2.356"
       id="ellipse15798" />
    <path
       d="m375.63 457.31 28.5-2.1518 27.727-4.62"
       stroke="#e7b077"
       stroke-width="1px"
       id="path15800" />
    <path
       d="m383.81 447.69 19.213-0.84587 18.005-2.8788"
       stroke="#e7b077"
       stroke-width="1px"
       id="path15802" />
  </g>
  <g
     id="g15812">
    <path
       d="m503.96 559.37-18.469-6.1562-18.469-12.312-10.26-14.775-5.7458-34.885-2.0521-24.625-0.82083-27.087-2.0521-11.902-6.5666-18.879s-8.2083-23.804-9.0291-25.446c-0.82083-1.6417-9.4395-27.908-9.4395-27.908l-6.5666-16.416-7.3874-10.26-11.492-5.3354-11.492-2.4625 17.648 9.0291 9.4395 16.006 10.671 33.654 14.364 42.273 4.5145 16.006 1.2312 18.469 0.41041 18.469 1.6416 25.446 2.4625 20.11 7.3874 16.417 6.1562 6.1562 15.596 9.0291 10.671 4.5145z"
       clip-path="url(#clipPath1622)"
       fill="#321f18"
       filter="url(#filter1178)"
       opacity=".83007"
       id="path15806" />
    <path
       d="m234.63 498.52 5.3354 7.3874 3.2833 12.723 6.977-10.26 12.312-7.7978 9.8499-0.82083 14.775 4.1041 8.2082 9.4395 22.573 25.035s4.925-11.081 4.5145-12.723c-0.41042-1.6416-9.0291-27.087-9.0291-27.087z"
       clip-path="url(#clipPath1749)"
       fill="#703c27"
       filter="url(#filter1412)"
       id="path15808" />
    <path
       d="m368.96 327.42a35.55 35.55 0 0 0-24.578 33.814 35.55 35.55 0 0 0 24.578 33.812z"
       fill="#e5ae73"
       filter="url(#filter1893)"
       id="path15810" />
  </g>
  <path
     d="m388.68 394.98a35.55 35.55 0 0 0 24.578-33.814 35.55 35.55 0 0 0-24.578-33.812z"
     fill="#22140f"
     fill-opacity=".7451"
     filter="url(#filter2233)"
     id="path15814" />
</svg>
