<?xml version="1.0" encoding="UTF-8" standalone="no"?>
<svg
   xmlns:dc="http://purl.org/dc/elements/1.1/"
   xmlns:cc="http://creativecommons.org/ns#"
   xmlns:rdf="http://www.w3.org/1999/02/22-rdf-syntax-ns#"
   xmlns:svg="http://www.w3.org/2000/svg"
   xmlns="http://www.w3.org/2000/svg"
   xmlns:sodipodi="http://sodipodi.sourceforge.net/DTD/sodipodi-0.dtd"
   xmlns:inkscape="http://www.inkscape.org/namespaces/inkscape"
   width="967.61"
   height="967.61"
   version="1.1"
   viewBox="0 0 967.61 967.61"
   id="svg2421"
   sodipodi:docname="shadow-and-inside.svg"
   inkscape:version="1.0.2-2 (e86c870879, 2021-01-15)">
  <metadata
     id="metadata2425">
    <rdf:RDF>
      <cc:Work
         rdf:about="">
        <dc:format>image/svg+xml</dc:format>
        <dc:type
           rdf:resource="http://purl.org/dc/dcmitype/StillImage" />
      </cc:Work>
    </rdf:RDF>
  </metadata>
  <sodipodi:namedview
     pagecolor="#ffffff"
     bordercolor="#666666"
     borderopacity="1"
     objecttolerance="10"
     gridtolerance="10"
     guidetolerance="10"
     inkscape:pageopacity="0"
     inkscape:pageshadow="2"
     inkscape:window-width="1920"
     inkscape:window-height="1017"
     id="namedview2423"
     showgrid="false"
     inkscape:zoom="0.42648258"
     inkscape:cx="-13.776909"
     inkscape:cy="452.53639"
     inkscape:window-x="-8"
     inkscape:window-y="-8"
     inkscape:window-maximized="1"
     inkscape:current-layer="svg2421" />
  <defs
     id="defs2389">
    <filter
       id="filter5453"
       x="-.12987"
       y="-.13698"
       width="1.2597"
       height="1.274"
       color-interpolation-filters="sRGB">
      <feGaussianBlur
         stdDeviation="1.1346231"
         id="feGaussianBlur2353" />
    </filter>
    <filter
       id="filter5543"
       x="-.12749"
       y="-.10219"
       width="1.255"
       height="1.2044"
       color-interpolation-filters="sRGB">
      <feGaussianBlur
         stdDeviation="1.0047752"
         id="feGaussianBlur2356" />
    </filter>
    <linearGradient
       id="linearGradient5649"
       x1="-574.48"
       x2="-586.38"
       y1="420.72"
       y2="410.16"
       gradientTransform="translate(1074.4 74.115)"
       gradientUnits="userSpaceOnUse">
      <stop
         offset="0"
         id="stop2359" />
      <stop
         stop-opacity="0"
         offset="1"
         id="stop2361" />
    </linearGradient>
    <filter
       id="filter5903"
       x="-.2387"
       y="-.23742"
       width="1.4774"
       height="1.4748"
       color-interpolation-filters="sRGB">
      <feGaussianBlur
         stdDeviation="1.8980804"
         id="feGaussianBlur2364" />
    </filter>
    <filter
       id="filter6089"
       x="-.27485"
       y="-.26487"
       width="1.5497"
       height="1.5297"
       color-interpolation-filters="sRGB">
      <feGaussianBlur
         stdDeviation="2.6949786"
         id="feGaussianBlur2367" />
    </filter>
    <clipPath
       id="clipPath2372">
      <ellipse
         cx="484.06"
         cy="482.9"
         rx="486.38"
         ry="485.22"
         fill="none"
         stroke="#ba0000"
         stroke-width=".881"
         id="ellipse2370" />
    </clipPath>
    <filter
       id="filter12702"
       x="-.068272"
       y="-.068316"
       width="1.1365"
       height="1.1366"
       color-interpolation-filters="sRGB">
      <feGaussianBlur
         stdDeviation="26.878498"
         id="feGaussianBlur2374" />
    </filter>
    <clipPath
       id="clipPath12726">
      <circle
         cx="486.42"
         cy="484.08"
         r="486.44"
         fill="none"
         stroke="#a09fa4"
         stroke-width="1.0303"
         id="circle2377" />
    </clipPath>
    <filter
       id="filter14302"
       x="-.20739"
       y="-.24185"
       width="1.4148"
       height="1.4837"
       color-interpolation-filters="sRGB">
      <feGaussianBlur
         stdDeviation="13.080095"
         id="feGaussianBlur2380" />
    </filter>
    <filter
       id="filter14346"
       x="-.39903"
       y="-.51106"
       width="1.7981"
       height="2.0221"
       color-interpolation-filters="sRGB">
      <feGaussianBlur
         stdDeviation="37.00627"
         id="feGaussianBlur2383" />
    </filter>
    <filter
       id="filter14394"
       x="-.39477"
       y="-.50561"
       width="1.7895"
       height="2.0112"
       color-interpolation-filters="sRGB">
      <feGaussianBlur
         stdDeviation="36.611541"
         id="feGaussianBlur2386" />
    </filter>
  </defs>
  <g
     transform="translate(2.3386 2.3386)"
     stroke="#000"
     id="g2409">
    <g
       stroke="#a09fa4"
       id="g2397">
      <circle
         cx="488.6"
         cy="483.44"
         r="171.38"
         fill="#62273f"
         stroke-width="60.151"
         id="circle2391" />
      <circle
         cx="488.01"
         cy="483.44"
         r="125.46"
         fill="#62273f"
         stroke-width="5.7713"
         id="circle2393" />
      <circle
         cx="487.27"
         cy="483.81"
         r="22.583"
         fill="#a09fa4"
         stroke-width="1.0388"
         id="circle2395" />
    </g>
    <g
       stroke="none"
       id="g2405">
      <path
         d="m476 504.3 10.883-19.879-20.967 9.3591 2.3942 4.0629 2.6118 2.902 2.757 2.2491z"
         fill="#1f1f21"
         filter="url(#filter5453)"
         opacity=".1954"
         id="path2399" />
      <path
         d="m505.8 469.96-1.8469-2.3599-2.9755-2.2573-2.5651-1.9495-2.8728-1.1286-2.9755-0.92343-3.1807-0.51302-2.4988 23.598z"
         fill="#1f1f21"
         filter="url(#filter5543)"
         opacity=".16092"
         id="path2401" />
      <path
         d="m505.37 500.17-14.108-19.187-2.1546 2.0521-1.0261 1.2312-0.9747 1.4364-0.8208 1.3851z"
         fill="url(#linearGradient5649)"
         filter="url(#filter5903)"
         id="path2403" />
    </g>
    <path
       transform="rotate(180 486.74 483.88)"
       d="m508.82 481.14-23.43 2.3594 4.2422 22.061 3.3867-0.61523 2.873-1.1289 2.4629-1.4355 1.7442-1.334 2.873-2.5664 1.7442-2.2559 1.3339-1.7441 1.5391-3.4883 0.8203-3.0781 0.5117-3.9004z"
       fill="#f2f2f2"
       filter="url(#filter6089)"
       opacity=".73276"
       stroke="none"
       id="path2407" />
  </g>
  <path
     d="m488.64 15.813c-79.065 2.8e-5 -176.74 50.257-246.14 88.147 66.931 111.44 166.31 248.55 318.41 329.32 115.95 61.57 261.31 201.32 400.34 177.1 0.45472-8.4526-0.48724-113.97-0.48758-122.43 2.3e-4 -125.22-49.742-245.3-138.28-333.85-88.541-88.542-208.63-138.28-333.85-138.28zm-465.07 390.79c-4.6988 26.86-7.0618 54.077-7.0625 81.346 2.92e-4 125.22 49.743 245.3 138.28 333.85 88.542 88.541 208.63 138.28 333.85 138.28 90.122-7e-5 158.48-30.471 254.29-74.334-61.999-105.66-167.42-220.26-278.97-301.57-137.82-100.45-305.56-168.79-440.39-177.57z"
     clip-path="url(#clipPath12726)"
     filter="url(#filter12702)"
     opacity=".40523"
     id="path2411"
     style="opacity:0.30065359" />
  <g
     id="g2419">
    <path
       d="m832.55 764.54c30.633 9.6219 43.862-15.733-2.3017-58.314-46.163-42.581-151.72-102.39-182.35-112.01s13.653 30.938 59.817 73.519c46.164 42.581 94.202 87.18 124.83 96.802z"
       fill="#fff"
       filter="url(#filter14346)"
       opacity=".14052"
       style="mix-blend-mode:normal"
       id="path2413" />
    <path
       d="m500.83 521.59c26.599 17.974 78.006 52.204 103.32 67.488 25.318 15.284 24.53 11.542 3.5955-11.761s-60.918-65.051-82.588-87.103c-21.67-22.052-24.475-23.831-29.931-20.402-5.4564 3.4286-13.563 12.064-18.102 17.995-4.5383 5.9301-5.5077 9.1533-5.097 11.624 0.41071 2.4704 2.2003 4.1874 28.799 22.161z"
       filter="url(#filter14302)"
       opacity=".22549"
       id="path2415" />
    <path
       d="m146.73 212.02c-30.633-9.6219-43.862 15.733 2.3017 58.314 46.163 42.581 151.72 102.39 182.35 112.01s-13.653-30.938-59.817-73.519c-46.164-42.581-94.202-87.18-124.83-96.802z"
       fill="#fff"
       filter="url(#filter14394)"
       opacity=".18301"
       style="mix-blend-mode:normal"
       id="path2417" />
  </g>
</svg>
